<?xml version="1.0" standalone="no"?>
<!DOCTYPE svg PUBLIC "-//W3C//DTD SVG 20010904//EN"
 "http://www.w3.org/TR/2001/REC-SVG-20010904/DTD/svg10.dtd">
<svg version="1.0" xmlns="http://www.w3.org/2000/svg"
 width="400.000000pt" height="400.000000pt" viewBox="0 0 400.000000 400.000000"
 preserveAspectRatio="xMidYMid meet">
<metadata>
Created by potrace 1.11, written by Peter Selinger 2001-2013
</metadata>
<g transform="translate(0.000000,400.000000) scale(0.100000,-0.100000)"
fill="#000000" stroke="none">
<path d="M1493 3337 c-46 -49 -42 -59 64 -161 123 -118 240 -216 361 -303 52
-36 96 -72 99 -80 9 -22 -121 -205 -195 -274 -73 -70 -205 -145 -338 -192
-113 -41 -146 -42 -263 -12 -201 51 -452 58 -563 16 -148 -57 -223 -165 -247
-356 -15 -126 17 -270 100 -440 110 -226 339 -410 619 -500 47 -15 93 -31 102
-36 10 -5 67 -9 128 -9 60 0 110 -3 110 -7 1 -5 5 -28 10 -53 17 -89 -14 -530
-52 -736 -12 -66 -13 -67 -85 -128 -68 -56 -72 -61 -48 -64 14 -2 38 6 55 18
l30 21 0 -20 c0 -33 36 -27 43 7 4 15 18 81 32 147 35 167 55 393 55 625 l0
197 48 7 c279 38 403 140 617 509 90 156 222 280 385 362 100 50 136 82 165
147 33 74 54 183 38 199 -8 8 -14 -3 -22 -40 -6 -28 -26 -82 -45 -120 -38 -75
-82 -114 -191 -169 -86 -43 -213 -139 -267 -203 -44 -52 -133 -189 -208 -322
-19 -34 -69 -97 -111 -139 -91 -93 -180 -140 -328 -170 -140 -29 -343 -21
-456 17 -181 62 -347 165 -462 288 -191 205 -281 526 -203 731 99 260 462 284
1079 72 88 -31 134 -35 86 -9 -16 10 -70 33 -119 53 -50 20 -91 41 -93 47 -2
5 21 15 51 22 62 14 194 79 282 138 76 52 161 143 231 249 30 46 61 85 68 88
7 2 39 -13 71 -35 100 -66 167 -75 211 -26 56 61 58 120 8 176 -19 21 -35 41
-35 44 0 11 134 29 176 23 40 -5 44 -3 48 17 3 12 8 36 12 52 l6 30 14 -35
c14 -34 14 -34 10 32 -2 42 1 73 8 84 11 14 15 11 37 -23 37 -55 79 -166 87
-226 l6 -52 7 40 c10 56 -5 134 -37 199 -50 102 -117 146 -142 94 -10 -22 -11
-21 -11 9 -1 22 4 33 18 38 68 21 173 -114 217 -280 17 -64 19 -114 20 -555 1
-309 5 -518 13 -575 45 -342 114 -576 376 -1270 90 -237 169 -449 176 -472 10
-35 17 -43 36 -43 12 0 23 1 23 3 0 12 -77 221 -185 502 -167 433 -178 465
-164 481 6 8 38 24 71 36 136 49 199 186 185 399 -4 54 -2 91 4 94 5 4 29 -1
54 -10 59 -23 120 -13 182 28 72 48 85 81 80 199 -2 54 -9 103 -14 110 -6 7
-16 30 -23 52 -22 69 -103 206 -193 328 -26 35 -17 54 30 63 21 5 43 9 48 10
34 8 126 59 162 89 51 44 66 88 61 173 -4 62 -6 67 -49 108 -40 38 -50 42
-112 49 -74 7 -101 4 -225 -25 -172 -42 -280 -26 -393 57 -65 48 -88 82 -99
151 -18 113 -127 290 -201 328 -34 18 -113 20 -126 3 -19 -24 -22 -61 -11
-145 10 -75 9 -85 -7 -103 -12 -13 -31 -20 -56 -20 -36 0 -38 2 -55 52 -32 98
-148 188 -204 158 -20 -11 -40 -67 -40 -112 0 -16 -2 -28 -5 -28 -3 0 -62 32
-133 71 -151 85 -379 199 -398 199 -7 0 -29 13 -47 30 l-34 29 -20 -22z m113
-89 c41 -17 79 -39 84 -48 12 -22 -2 -74 -21 -78 -15 -2 -159 130 -159 147 0
17 14 14 96 -21z m195 -93 c27 -14 52 -31 55 -38 2 -7 1 -37 -3 -67 -10 -69
-33 -77 -87 -29 -50 44 -57 60 -44 100 6 19 12 40 14 47 4 16 7 16 65 -13z
m446 -40 c14 -10 20 -22 17 -33 -4 -12 -3 -13 3 -4 12 16 21 6 57 -65 18 -37
22 -51 11 -47 -7 3 -19 21 -25 40 -16 47 -32 32 -24 -22 6 -41 5 -44 -16 -44
-13 0 -38 9 -56 21 -33 20 -34 22 -34 88 0 37 3 71 7 74 11 12 37 8 60 -8z
m-288 -142 c20 -15 38 -31 39 -35 2 -4 10 -8 17 -8 20 0 25 -26 9 -49 -20 -28
-30 -27 -85 11 -60 40 -73 61 -57 88 17 27 34 25 77 -7z m229 -166 c14 -17
-11 -57 -35 -57 -15 0 -113 67 -113 77 0 3 9 21 21 39 l21 34 47 -40 c27 -21
53 -45 59 -53z m115 35 c9 -10 22 -33 28 -51 15 -41 2 -55 -63 -73 -62 -16
-80 -3 -51 39 11 15 26 45 32 66 14 41 29 46 54 19z m584 -123 c24 -22 70 -52
101 -67 50 -22 71 -26 167 -26 78 -1 130 4 180 18 84 23 165 28 184 12 12 -9
13 -8 6 3 -6 11 -4 13 9 8 10 -4 24 -7 31 -7 8 0 30 -14 49 -31 60 -52 61
-142 3 -200 -44 -44 -137 -86 -225 -101 l-72 -12 -78 75 c-78 77 -239 195
-251 184 -3 -4 36 -46 86 -93 146 -137 243 -234 243 -243 0 -5 22 -33 49 -63
27 -30 55 -65 62 -78 6 -13 31 -52 54 -88 74 -115 111 -245 94 -335 -16 -87
-102 -150 -171 -126 -38 13 -70 40 -62 52 3 5 -1 7 -8 4 -19 -7 -71 75 -111
175 -19 47 -64 146 -100 220 -79 164 -133 322 -142 413 -11 100 -23 81 -21
-30 2 -78 9 -121 35 -208 19 -60 40 -117 48 -126 20 -24 53 -115 45 -124 -4
-5 -2 -5 4 -2 13 8 94 -143 94 -176 1 -12 9 -40 20 -62 11 -22 19 -55 20 -73
0 -18 7 -47 17 -65 21 -41 30 -215 14 -273 -14 -53 -61 -79 -128 -71 -87 9
-140 89 -169 250 -21 114 -33 140 -34 72 -1 -27 -5 -59 -9 -70 -7 -17 -9 -15
-19 15 -6 19 -23 96 -39 170 -27 135 -27 136 -31 628 -2 270 0 492 4 492 4 0
27 -18 51 -41z"/>
<path d="M2091 2569 c-21 -22 -27 -62 -15 -93 4 -10 18 -16 40 -16 27 0 37 5
46 25 14 32 2 72 -29 92 -19 13 -23 12 -42 -8z"/>
<path d="M2452 2537 c-23 -28 -25 -71 -4 -91 46 -41 108 14 80 72 -15 31 -58
42 -76 19z"/>
<path d="M588 2057 c7 -8 6 -19 -3 -37 -22 -38 -18 -83 11 -126 40 -61 73 -91
120 -114 51 -24 93 -26 120 -6 17 13 21 13 37 -7 18 -22 18 -22 14 24 -10 105
-84 210 -181 255 -56 26 -137 34 -118 11z"/>
<path d="M1495 1770 c-44 -11 -102 -37 -136 -61 -25 -17 -28 -23 -17 -36 7 -8
17 -25 23 -36 16 -33 71 -65 133 -78 72 -14 182 -6 222 18 36 21 84 89 76 108
-8 22 -77 62 -136 79 -56 17 -115 19 -165 6z"/>
<path d="M2722 50 c19 -28 41 -50 51 -50 9 0 17 3 17 6 0 15 -43 75 -60 84
-37 20 -39 9 -8 -40z"/>
</g>
</svg>
