<svg version="1.1" id="Ebene_2" xmlns="http://www.w3.org/2000/svg" x="0" y="0" viewBox="0 0 1055 332" xml:space="preserve"><style>.st0{fill:#fff}</style><path class="st0" d="M78.2 136.3c-2.6-.3-4.8-.7-6.6-1.1-1.8-.4-3.7-1-5.5-1.7-1.8-.8-3.4-1.8-4.7-3-1.3-1.2-1.9-2.7-1.9-4.5.4-1.1.7-2 1-2.6s.6-1.1 1.1-1.5c.5-.4 1.2-.9 2.2-1.6.2-.2.5-.3.7-.5 1.4-.8 3.1-1.2 5.1-1.2 1.3 0 2.6.1 4 .2 1.4.2 2.9.4 4.3.4 1 0 2.1-.1 3.1-.4 1.2-.2 2.1-.8 2.8-1.7.6-.9 1.1-1.9 1.4-3 1.8-5.2 3.7-10.4 5.9-15.6 3.5-8.3 6.3-16.7 8.4-25 .2-.9.4-1.6.4-2.2 0-1.4-.7-2.2-2.2-2.2-.6 0-1.3.1-2.2.4-5.8 1.8-11.1 4.1-15.9 6.9-4.8 2.8-8.7 6.4-11.6 10.8-2.9 4.4-4.3 9.8-4.3 16.4v1c0 .5 0 1.1.1 1.8v2.5c0 1.1-.1 2.1-.4 3-.2.9-.8 1.3-1.7 1.3-.6 0-1.3-.2-2.3-.7-4.6-2.6-7.5-6.5-8.9-11.7-1.4-4.3-2-8.6-2-12.9 0-7.8 2-15 6-21.5 4-6.6 9.4-12 16.1-16.3 6.7-4.3 14.2-6.9 22.4-7.9 1.8-.2 3.8-.4 5.9-.4 5 0 10.4.4 16.3 1.3s12.1 1.8 18.5 2.9c7.2 1.3 14.5 2.4 21.8 3.5 7.3 1 14.4 1.6 21.1 1.6 6.1 0 11.8-.6 17.1-1.8 5.3-1.2 10-3.2 14.1-6.1 1.1-.8 2.1-1.2 2.9-1.2 1.3 0 2.3.7 3.1 2 .8 1.4 1.3 2.9 1.7 4.6.4 1.7.6 3.2.8 4.5-.3 6.5-2.2 11.5-5.7 15.1-3.5 3.6-8 6-13.5 7.4-5.5 1.4-11.5 2-17.9 2-6 0-12-.4-18-1.1-6-.8-11.5-1.5-16.5-2.3-3.7-.6-6.9-1-9.6-1.3-3-.4-5.2-.6-6.7-.6-1.4 0-2.3.1-2.8.4-.5.3-.7.6-.7 1 0 .7.3 1.6.8 2.5.2.3.3.7.5 1.1.8 1.9 1.2 4.3 1.2 7.2 0 5.5-.9 11.6-2.6 18.5-1.8 6.9-3.3 12.3-4.7 16.2-.5 1.1-.7 2-.7 2.5 0 .6.3 1 .8 1.2.5.2 1.4.5 2.6.7 3.6.9 7.5 1.3 11.7 1.3 2.4 0 4.8-.2 7.2-.7 2.4-.5 4.5-1.3 6.3-2.4.9-.5 1.7-.7 2.5-.7 1.4 0 2.5.6 3.3 1.9.8 1.3 1.3 2.8 1.3 4.7 0 1.8-.5 3.5-1.5 5.4-1 1.8-2.6 3.4-4.9 4.6-2.2 1.1-4.4 1.9-6.7 2.3-2.3.4-4.7.7-7 .7-4.8 0-9.6-.5-14.4-1.6h-.4c-.7-.2-1.4-.3-1.9-.4-1.1-.2-2-.4-2.6-.4-1 0-1.7.4-2.2 1.2-.5.8-1 2.4-1.7 4.7-.4 1.4-.9 3.1-1.4 5.1-1.4 4.4-3 9.6-4.6 15.5-1.6 5.9-3.1 12.1-4.3 18.6-1.2 6.5-1.9 12.5-1.9 18.2 0 4.5.5 8.6 1.6 12.2 1 3.6 2.8 6.6 5.3 8.7 1.8 1.6 2.6 2.9 2.6 4 0 1.3-.8 2.3-2.5 3.1-1.6.8-3.5 1.3-5.7 1.6-2.2.3-4.1.5-5.8.5H93c-7.1-.5-12.7-2.2-16.8-5.2-4.1-3-6.9-6.8-8.5-11.6-1.6-4.7-2.5-10-2.5-15.8 0-7.9 1.1-16.3 3.2-25s4.3-16.6 6.6-23.8c1.2-3.9 2.2-7.4 3-10.5.1-.3.2-.6.2-1 .2-.6.4-1.1.4-1.6-.1-.1-.2-.5-.4-.9z"/><path class="st0" d="M211.4 217c-4.5 0-8.7-1.4-12.6-4.1-3.9-2.7-6.9-6.3-8.8-10.7-.4-1-.8-2-1.1-3-.2-.8-.5-1.5-.7-2-.2-.6-.5-.8-.9-.8-.8 0-1.9.9-3.2 2.6-2.2 3.1-4.7 6-7.3 8.6-2.6 2.6-5.5 4.7-8.6 6.3-3.1 1.6-6.5 2.4-10.2 2.4-7.9-.7-13.7-3.1-17.3-7.3-3.6-4.1-5.4-10.1-5.4-17.9 0-6.4 1.3-13.2 3.9-20.3 2.6-7.1 6.1-13.8 10.6-20 4.5-6.2 9.8-11.2 15.7-15.2 5.9-3.9 12.3-5.9 19-5.9 2.5 0 5.1.3 7.9 1 3.8 1.1 7.2 2.8 10.3 5.2.9.6 1.4 1 1.7 1 .5 0 1-.5 1.7-1.4 1.4-1.8 3-3.1 4.8-3.9 1.7-.7 3.4-1.1 5.1-1.1 3.2 0 6.1.9 8.7 2.8 2.6 1.9 3.9 4 3.9 6.3 0 1.2-.3 2.3-1 3.2-.4.5-1.8 3.9-4.3 10.2-2.5 6.3-5 13.8-7.5 22.5s-3.8 16.7-3.8 24v2.4c0 .4 0 .8.1 1.3 0 .4.1.9.3 1.3.3 1.3 1 1.9 1.9 1.9.5 0 1.1-.2 1.9-.7 4.7-2.9 9.9-8.6 15.8-17 5.9-8.5 11.3-17.1 16.2-26 4.9-8.9 8.3-15.3 10-19.4.3-1.1.8-1.9 1.3-2.2.6-.4 1.3-.5 2.3-.5h1.1c1.4 0 2.5.4 3.5 1.2 1 .8 1.4 1.9 1.4 3.2 0 1-.3 2.2-.8 3.5-.5 3.9-3.1 10.1-7.9 18.8-4.8 8.7-10.5 17.4-17.2 26.3-6.7 8.9-13.2 15.5-19.6 20-3.5 2.2-7.2 3.4-10.9 3.4zm-49.2-14.8c1.4 0 3.9-2 7.5-5.9 3.6-3.9 7.5-8.8 11.6-14.6 4.1-5.8 7.6-11.8 10.6-17.9 3-6.1 4.5-11.4 4.5-15.8 0-1.8-.3-3.4-1-4.8-.6-1.4-1.6-2.2-2.9-2.2-3 0-7.3 3.4-12.7 10.2-5.4 6.8-10.3 14.5-14.7 23.2-4.4 8.6-6.6 15.7-6.6 21.1 0 1.6.3 3.1.8 4.4.7 1.2 1.6 2 2.9 2.3z"/><path class="st0" d="M280.6 217c-5.4 0-10.2-1.1-14.1-3.2s-7.5-5.5-10.5-10c-2.8-4.7-4.2-10.7-4.2-18 0-5.8.7-12.2 2-19.1 1.3-6.9 2.9-13.8 4.8-20.8 1.9-6.9 3.7-13.6 5.6-19.9 2.1-6.9 3.8-12.9 5-17.9.1-.1.1-.2.2-.3 0-.1.1-.2.1-.4 0-.4-.1-.6-.4-.7-.3-.1-.6-.2-1.1-.2-3.7 0-8.1.5-13.3 1.5-5.2 1-9.7 2-13.5 2.9-.4.1-.9.2-1.4.2-1.1 0-2-.3-2.8-.9-.8-.6-1.2-1.3-1.2-2 0-.6.4-1.3 1.1-2 .8-.7 2.1-1.4 4.1-2.1 9.2-2.9 18.5-5.1 27.9-6.6 1.9-.4 3.3-1.9 4.3-4.6 1-2.7 1.7-5.8 2.1-9.3.4-3.5.8-6.6 1-9.3.1-1.4.1-2.5.2-3.4 0-1.1.2-1.9.5-2.6s1-1 2-1c.1 0 .3 0 .5.1.2 0 .4.1.6.2 6.5 1.7 11.1 4.1 13.8 7.2 2.7 3.1 4 7.4 4 13.1 0 1.3-.1 2.7-.2 4.2 0 .6.1 1.2.3 1.6.2.4.7.6 1.4.6 6.3 0 12.5-.1 18.5-.4 2.9-.1 5.8-.1 8.6-.2 2 0 3.7 1 5.2 3.1 1.4 2 2.1 3.9 2.1 5.5 0 1.8-.8 2.8-2.5 2.9h-.3c-1.9 0-4-.2-6.1-.5-3.7-.4-7.2-.6-10.7-.6l-10.8.2-5-.2c-1.1 0-1.8.2-2.3.6-.5.4-.9 1.2-1.2 2.3-1.3 5.1-3.2 11.9-5.7 20.3-2.3 7.4-4.6 15.4-6.9 23.8-2.3 8.4-4.3 16.5-6 24.1-1.6 7.7-2.5 14-2.5 19.1-.1 1.4-.2 2.6-.2 3.8 0 1.5.2 3.1.5 4.7s1.1 2.5 2.3 2.7h.2c3.2 0 7.7-3.1 13.4-9.2 5.7-6.2 11.5-13.4 17.3-21.8 5.8-8.3 10.7-16.1 14.6-23.3.7-1.2 1.6-2.1 2.8-2.7 1.1-.6 2.3-.9 3.4-.9 1.3 0 2.4.3 3.4.9 1 .6 1.5 1.5 1.5 2.6 0 .9-.4 1.8-1.2 2.8-2.7 3.7-6.2 9.3-10.4 16.8-3.9 6.7-8.1 13.5-12.6 20.5s-9.2 13-14 17.9c-4.9 4.9-9.6 7.5-14.2 7.9zM478 217c-3.5 0-7.1-.8-11.1-2.5-3.9-1.7-6.3-4.2-7.1-7.6-.3-2.6-.5-5.2-.5-7.6 0-5.5.7-11.1 2-16.8 1.4-5.7 2.9-11.4 4.7-17.1 1.7-5.3 3.1-10.5 4.4-15.5 1.2-5.1 1.9-9.9 1.9-14.4 0-1.2-.1-2.4-.2-3.5 0-1.5.2-2.6.6-3.2.4-.6 1.5-1 3.4-1.1 1.4-.2 2.7-.2 4-.2 5.5 0 10 1.7 13.5 5.2 3.4 3.4 5.2 7.9 5.2 13.2l-.5 4.9v.4c0 .1 0 .1.1.1h.2c.4 0 1-.5 1.7-1.5.8-1 1.5-2.1 2.3-3.2l1.8-2.7c.2-.2.2-.3.2-.4.4-.6.8-1.1 1.1-1.6 1.8-2.6 3.7-5.2 5.9-7.7s4.8-4.4 7.8-5.8c2.2-1 4.5-1.6 6.7-1.6 5.3 0 10.1 2.1 14.4 6.2 4.3 4.1 6.5 8.9 6.5 14.3 0 3.8-1 8.8-3.1 15-2.1 6.2-4.5 12.5-7.1 18.8-2.6 6.3-5 11.7-7.1 16.1-1.1 2.5-1.7 4.5-1.7 5.9 0 .5.1.9.2 1.1s.3.4.5.4h.2c7.8-5 15.1-11.3 22-19 6.9-7.7 12.8-15.3 17.7-23 4.9-7.7 8.4-14 10.3-19 .5-1.3 1.1-2.2 1.9-2.7.8-.5 1.6-.8 2.5-.8 1.4 0 2.5.4 3.5 1.3s1.4 1.9 1.4 3.1c0 .3 0 .7-.1 1.1 0 .4-.2.8-.4 1.1-2.1 3.5-5 8.1-8.7 13.7-3.7 5.6-7.9 11.6-12.6 17.9-4.7 6.3-9.6 12.3-14.6 17.9-5.1 5.6-10 10.2-14.9 13.9-4.9 3.7-9.3 5.5-13.4 5.5-5 0-9.2-1.4-12.6-4.2-3.4-2.8-5.1-6.6-5.1-11.3 0-4.6.7-8.9 2-13s2.9-8.1 4.6-12.2c3.9-9.3 7.3-18.8 10.3-28.4.4-1.2.7-2.4 1-3.5.3-1.1.4-2 .4-2.6 0-.7-.2-1.1-.7-1.2-.7 0-2.3 1.2-4.7 3.5-4.7 4.9-9.7 11.6-15.1 20-5.4 8.5-10.1 17.1-14.1 26-4 8.9-6 16.1-6 21.7 0 1.2.1 2.2.2 3.1.4 2.3-1.6 3.5-5.7 3.5z"/><path class="st0" d="M585.9 216.7c-6.5 0-11.4-2.5-14.8-7.4s-5.1-11-5.1-18.2c0-5.7.8-11.4 2.4-17.3 1.6-5.8 3.4-11.5 5.5-17.1 3.2-8.4 5.4-16.3 6.5-23.7.2-1.2.4-2 .8-2.5s1-.7 2-.7c3.1 0 6.3.7 9.4 2.2 3.1 1.5 5.8 3.6 7.9 6.3 2.1 2.7 3.2 5.8 3.2 9.2 0 1.5-.2 3.1-.7 4.7l-.6 1.8c-2.4 7-5.3 15.9-8.6 26.8s-5.3 19-5.8 24.5c0 1.4.4 2.2 1.2 2.2l1.4-.5c5.5-3.2 11.9-9 19.3-17.3s14.3-16.9 20.6-25.8c6.3-8.9 10.5-15.7 12.6-20.4.4-1.2.9-2 1.5-2.3s1.3-.6 2.1-.8c.5-.1 1-.2 1.4-.2 1 0 1.9.6 2.7 1.7.8 1.1 1.3 2.5 1.3 4.1 0 1.2-.2 2.4-.7 3.5-2.2 5.1-7.1 12.6-14.7 22.5-7.5 9.9-15.5 19.2-23.8 27.9s-14.8 14-19.4 15.9c-2.5.5-5.1.9-7.6.9zm18.8-91.9h-1.4c-3.4-.6-6-1.5-7.9-2.6-1.9-1.1-3.3-2.2-4.2-3.3-.9-1.1-1.5-2.1-1.7-3.1-.2-.9-.3-1.5-.3-1.9v-.2c0-2 .2-4.3.7-6.7.4-2.5 1.3-4.7 2.6-6.5 1.3-1.8 3.3-2.8 5.8-2.8 1.4 0 3.5.5 6.1 1.5 2.6 1 5 2.6 7 4.8 2.1 2.2 3.1 5.1 3.1 8.7 0 3-.9 5.7-2.6 8.2-1.8 2.6-4.2 3.9-7.2 3.9z"/><path class="st0" d="M660.4 217.8c-5.3 0-10.5-1.1-15.6-3.2-5.1-2.2-9.3-5.6-12.6-10.2-3.3-4.6-5-10.6-5-18 0-5.7 1-11.8 2.9-18.3 2-6.5 4.6-12.7 8-18.5 3.4-5.8 7.2-10.5 11.6-14.2 4.4-3.7 9-5.5 13.9-5.5 3.2 0 6.4.6 9.6 1.7 3.2 1.1 5.9 2.8 8.1 4.9 2.2 2.2 3.3 4.8 3.3 7.9 0 1.3-.3 2.5-.9 3.6-.6 1.1-1.6 1.7-3.1 1.7-2.4-.2-4-.8-4.6-2-.7-1.2-1-2.4-1-3.8-.1-.8-.2-1.5-.4-2-.2-.6-.6-.9-1.1-1.1-4.1.6-7.7 3.6-10.8 9.1-3.1 5.5-5.6 12.2-7.5 19.9-1.8 7.7-2.8 14.9-2.8 21.4 0 2.8.2 5.4.5 7.9.4 2.4 1 4.5 1.9 6 .9 1.6 2.3 2.3 4 2.3 1.2 0 2.7-.4 4.5-1.1 6.7-2.9 13.8-8.2 21.1-16 7.3-7.8 14-16.2 20-25.4 6.1-9.1 10.6-17.3 13.8-24.4 1.3-2.3 2.8-3.5 4.7-3.5 1.6 0 3.1.7 4.5 2.2 1.4 1.4 2.1 3.4 2.1 5.9 0 4.3-3.5 11.6-10.3 21.9-6.9 10.3-14.5 20.1-22.7 29.4-8.3 9.3-15 15.4-20.3 18.2-4.5 2.1-9.8 3.2-15.8 3.2z"/><path class="st0" d="M768.3 172.6l.2.1c1.4 0 4.4-1.7 9-5.1 4.5-3.4 9-7.4 13.5-12s7.7-8.7 9.7-12.5c.6-1.3 1.5-1.9 2.8-1.9 1.2 0 2.3.4 3.4 1.2 1 .8 1.6 1.8 1.8 3 0 .8-.2 1.7-.6 2.6-3.7 6.2-9.1 12-16.2 17.5s-13.7 10.1-19.8 13.8c-2.1 1.2-4.1 2.6-6.1 4.2s-3.5 3.7-4.5 6.1c-4 10.5-10.7 19-20 25.4-2.2 1.2-4.8 1.8-7.8 1.8-3.2 0-6.5-.5-9.9-1.4-3.4-1-6.2-2-8.4-3.1-5.3-2.8-9.1-6.5-11.4-11.1s-3.4-9.6-3.4-15c0-8.3 1.9-16.7 5.6-25.3 3.7-8.6 8-15.8 12.7-21.5 4.7-5.8 8.8-8.9 12.3-9.4 1-.1 1.8-.1 2.6-.1 3.7 0 7.2 1 10.5 2.9.6.5 1.4.7 2.4.7 6.3.3 11 1.8 14.2 4.3 3.2 2.6 5.3 5.7 6.4 9.4 1 3.7 1.6 7.4 1.6 11 0 3.4-.2 6.4-.5 9-.2 1.7-.4 3-.4 4.1.1.6.2 1 .3 1.3zm-33.8-7.4c-2.7 3.1-4.7 7.7-6 13.6-1.3 5.9-1.9 11.7-1.9 17.2 0 3.7.3 6.9.8 9.6.4 1.9 1.3 2.9 2.8 2.9.6 0 1.3-.2 2.2-.5 4.5-1.7 8.3-4.4 11.5-8.1 3.2-3.7 5.7-7.7 7.6-12.2.2-.4.2-.8.2-1.1 0-.8-.5-1.3-1.4-1.6-.2-.1-.4-.2-.6-.2-.2-.1-.4-.2-.6-.2-4.8-2.4-8.1-4.9-9.7-7.6-1.7-2.6-3.2-6.3-4.5-10.8-.1-.2-.2-.6-.4-1zm17 13.9c.8.7 1.6 1.1 2.3 1.1 1.8 0 3.3-2.2 4.3-6.7s1.5-9.1 1.5-14c0-4-.3-7.6-1-10.6-.7-3.1-1.7-4.8-3.1-5h-.2c-1.8 0-3.5 2.3-5.3 7-1.8 4.7-2.6 9.6-2.6 14.9 0 2.6.3 5.2 1 7.5.5 2.3 1.5 4.2 3.1 5.8z"/><path class="st0" d="M865.3 163.5c1.4-1.2 2.7-2.4 4-3.5 1.1-.9 2.2-1.8 3.1-2.8 2.2-2 4.1-3.7 5.7-5.1 1.8-1.7 3.5-3.2 5-4.7 1.5-1.4 3.1-3.2 4.9-5.3 1.2-1.1 2.3-1.7 3.4-1.7 1 0 1.7.3 2.3 1 .6.7.9 1.5.9 2.3 0 .6-.2 1.3-.6 2-.6 1-2.4 3.1-5.4 6.4-2.9 3.3-6.5 7-10.6 10.9-4.1 3.9-8.3 7.4-12.6 10.3-4.3 2.9-8 4.4-11.3 4.4-1.4 0-2.6-.3-3.6-1-2.8-1.6-5-3.7-6.6-6.3-1.6-2.6-2.3-5.9-2.3-9.9 0-3 .5-6.4 1.6-10.3v-.2c.1-.2.1-.4.2-.6 0-.2.1-.3.1-.5s-.1-.2-.2-.2c-.2 0-.8.4-1.8 1.3-4.3 4.7-9.1 10.2-14.3 16.7s-9.7 13.2-13.6 20.2c-3.9 7-5.8 13.3-5.8 19 0 1.8.2 3.4.7 4.9.3 1.1.5 2.1.5 2.9 0 2.2-1.4 3.2-4.3 3h-1.1c-3.8-.2-7.1-1.2-9.9-3-2.4-1.6-4.1-3.8-5.2-6.6-1-2.8-1.6-5.9-1.6-9.4 0-5.6.9-11.9 2.6-18.8 1.8-6.9 3.7-13.7 5.9-20.3 3.4-10.3 5.5-18.9 6.4-25.6 0-1.4.1-2.4.4-2.9.2-.5.8-.8 1.7-.8.6 0 1.2.1 2 .2 5 .8 9.1 2.7 12.5 5.7 3.4 3 5.1 6.9 5.1 11.6 0 1.4-.2 3-.5 4.6-.1.4-.2.8-.2 1.2-.2.7-.4 1.4-.4 2.2l.1.8c.3 0 .6-.1.8-.2.2-.2.4-.4.5-.6.1-.2.2-.3.4-.4.2-.2.4-.5.6-.8 1.6-2.4 3.7-5.4 6.4-9 2.7-3.6 5.6-6.9 8.7-9.7 3.1-2.9 5.9-4.3 8.4-4.3h.8c5 .8 9.1 2.7 12.5 5.8 3.3 3 5 7 5 11.8 0 1.4-.2 2.9-.5 4.3-.3 1.5-.7 3-1.2 4.6-.6 1.7-1 3.5-1.4 5.3-.2.6-.2 1.1-.2 1.4 0 .6.1.8.4.7.2.1.8-.2 1.6-1z"/><path class="st0" d="M892.2 217c-3.4 0-7.1-.8-11.1-2.5-3.9-1.7-6.3-4.2-7.1-7.6-.3-2.6-.5-5.2-.5-7.6 0-5.5.7-11.1 2-16.8 1.4-5.7 2.9-11.4 4.7-17.1 1.7-5.3 3.1-10.5 4.4-15.5 1.2-5.1 1.9-9.9 1.9-14.4 0-1.2-.1-2.4-.2-3.5 0-1.5.2-2.6.6-3.2.4-.6 1.5-1 3.4-1.1 1.4-.2 2.7-.2 4-.2 5.5 0 10 1.7 13.5 5.2 3.4 3.4 5.2 7.9 5.2 13.2l-.5 4.9v.4c0 .1 0 .1.1.1h.2c.4 0 1-.5 1.7-1.5.8-1 1.5-2.1 2.3-3.2l1.8-2.7c.2-.2.2-.3.2-.4.4-.6.8-1.1 1.1-1.6 1.8-2.6 3.7-5.2 5.9-7.7s4.8-4.4 7.8-5.8c2.2-1 4.5-1.6 6.7-1.6 5.3 0 10.1 2.1 14.4 6.2 4.3 4.1 6.5 8.9 6.5 14.3 0 3.8-1 8.8-3.1 15-2.1 6.2-4.5 12.5-7.1 18.8-2.6 6.3-5 11.7-7.1 16.1-1.1 2.5-1.7 4.5-1.7 5.9 0 .5.1.9.2 1.1.2.3.3.4.5.4h.2c7.8-5 15.1-11.3 22-19 6.9-7.7 12.8-15.3 17.7-23 4.9-7.7 8.4-14 10.3-19 .5-1.3 1.1-2.2 1.9-2.7.8-.5 1.6-.8 2.5-.8 1.4 0 2.5.4 3.5 1.3s1.4 1.9 1.4 3.1c0 .3 0 .7-.1 1.1 0 .4-.2.8-.4 1.1-2.1 3.5-5 8.1-8.7 13.7-3.7 5.6-7.9 11.6-12.6 17.9-4.7 6.3-9.6 12.3-14.6 17.9-5.1 5.6-10 10.2-14.9 13.9-4.9 3.7-9.3 5.5-13.4 5.5-5 0-9.2-1.4-12.6-4.2-3.4-2.8-5.1-6.6-5.1-11.3 0-4.6.7-8.9 2-13s2.9-8.1 4.6-12.2c3.9-9.3 7.3-18.8 10.3-28.4.4-1.2.7-2.4 1-3.5.3-1.1.4-2 .4-2.6 0-.7-.2-1.1-.7-1.2-.7 0-2.3 1.2-4.7 3.5-4.7 4.9-9.7 11.6-15.1 20-5.4 8.5-10.1 17.1-14.1 26-4 8.9-6 16.1-6 21.7 0 1.2.1 2.2.2 3.1.5 2.3-1.6 3.5-5.7 3.5zM701.4 283.6v-.4c0-2.8.6-5 1.9-6.6 1.3-1.6 2.7-2.9 4.4-4.1.6-.5 1.4-.7 2.2-.7 1.2 0 2.3.4 3.4 1.2 3.8 3.1 5.8 7.1 5.8 12.1 0 .9-.3 1.8-1 2.7-1.7 1.9-3.6 3.8-5.5 5.8-.6.7-1.4 1.1-2.2 1.1-.5 0-1-.1-1.5-.4-4.5-3-7-6.6-7.5-10.7zM748.7 275.2c.9 1 1.7 2 2.3 3 .3.4.5.8.8 1.2 1.1 1.8 1.8 3.6 2.3 5.6.5 2 .7 4 .7 6.1 0 3.5-.6 6.9-1.8 10.3s-2.7 6.4-4.6 9.1c-.8 1.1-1.7 1.8-2.7 2.2-1 .4-2 .6-3.2.6-.6 0-1.2 0-1.7-.1-3.1-.5-5.6-1.5-7.5-3.2-1.9-1.6-3.2-3.7-4-6.2-.8-2.5-1.2-5.4-1.2-8.5 0-4.8.7-10 2.1-15.6 1.4-5.6 3.1-11.1 5-16.4 1.9-5.4 3.7-10.2 5.4-14.4 1.7-4.2 2.8-7.4 3.5-9.6.9-2.8 1.3-5.6 1.3-8.4 0-.6 0-1.2-.1-1.8v-.3c0-.8.4-1.2 1.1-1.2l.5.1c2.2.6 3.8 2 4.7 4.1.9 2.1 1.4 4.6 1.4 7.6 0 3.5-.5 7.2-1.4 11.2-.9 4-1.9 7.6-3.1 11-1.1 3.3-2.2 5.9-3.1 7.8-.1.3-.2.6-.2.8 0 .5.4.7 1.3.7h.2c3.3 0 7.3-1.1 12.2-3.3s8.4-4.7 10.5-7.6c.4-.9.9-1.3 1.4-1.3.4 0 1 .3 1.5.8l.6.6c.3.8.5 1.5.5 2.2 0 1.6-.7 3-2.2 4.2s-3.2 2.3-5.4 3.3-4.4 1.8-6.7 2.5-4.4 1.3-6.2 1.7c-2.1.4-3.5.9-4.2 1.2zm0 10.3c-.7-3.3-2-6.2-4.1-8.9-.3-.4-.5-.6-.8-.6-.3 0-.6.3-.8.9-1.1 3-2 6.4-2.7 10.1-.8 3.7-1.1 7.4-1.1 11.1 0 3.3.4 6.4 1.2 9.3.3 1 .7 1.4 1.2 1.4.4 0 .8-.2 1.3-.7 2.2-2 3.8-4.7 4.7-8.1 1-3.4 1.4-6.7 1.4-9.9.1-1.7 0-3.2-.3-4.6z"/><path class="st0" d="M772 291.9c-2.8 0-4.9-1-6.3-3.1-1.4-2.1-2.2-4.7-2.2-7.8 0-2.4.3-4.9 1-7.3.7-2.5 1.5-4.9 2.4-7.3 1.4-3.6 2.3-6.9 2.8-10.1.1-.5.2-.9.3-1.1.2-.2.4-.3.8-.3 1.3 0 2.7.3 4 .9 1.3.6 2.4 1.5 3.4 2.7.9 1.1 1.4 2.4 1.4 3.9 0 .6-.1 1.3-.3 2-.1.2-.2.5-.3.8-1 3-2.2 6.8-3.7 11.4-1.4 4.6-2.2 8.1-2.5 10.4 0 .6.2.9.5.9l.6-.2c2.3-1.4 5.1-3.8 8.2-7.4s6.1-7.2 8.8-11c2.7-3.8 4.5-6.7 5.4-8.7.2-.5.4-.8.6-1 .3-.2.6-.3.9-.3.2 0 .4-.1.6-.1.4 0 .8.2 1.2.7.4.5.5 1.1.5 1.7 0 .5-.1 1-.3 1.5-1 2.2-3 5.4-6.2 9.6-3.2 4.2-6.6 8.2-10.1 11.9-3.5 3.7-6.3 6-8.3 6.8-1 .3-2.1.5-3.2.5zm8-39.2h-.6c-1.4-.3-2.6-.6-3.4-1.1-.8-.5-1.4-.9-1.8-1.4-.4-.5-.6-.9-.7-1.3-.1-.4-.1-.7-.1-.8v-.1c0-.9.1-1.8.3-2.9.2-1.1.6-2 1.1-2.8.6-.8 1.4-1.2 2.5-1.2.6 0 1.5.2 2.6.6 1.1.4 2.1 1.1 3 2 .9.9 1.3 2.2 1.3 3.7 0 1.3-.4 2.4-1.1 3.5s-1.8 1.8-3.1 1.8z"/><path class="st0" d="M798.7 292c-1.5 0-3-.4-4.7-1.1-1.7-.7-2.7-1.8-3-3.2-.1-1.1-.2-2.2-.2-3.2 0-2.4.3-4.7.9-7.2.6-2.4 1.2-4.8 2-7.3.7-2.3 1.3-4.5 1.9-6.6.5-2.2.8-4.2.8-6.1 0-.5 0-1-.1-1.5 0-.6.1-1.1.3-1.4s.6-.4 1.4-.5c.6-.1 1.1-.1 1.7-.1 2.4 0 4.3.7 5.7 2.2 1.5 1.5 2.2 3.3 2.2 5.6l-.2 2.1V264h.1c.2 0 .4-.2.7-.6.3-.4.7-.9 1-1.4.3-.5.6-.9.8-1.2.1-.1.1-.1.1-.2.2-.2.3-.5.5-.7.8-1.1 1.6-2.2 2.5-3.3.9-1.1 2-1.9 3.3-2.5 1-.4 1.9-.7 2.9-.7 2.3 0 4.3.9 6.1 2.6 1.8 1.8 2.8 3.8 2.8 6.1 0 1.6-.4 3.7-1.3 6.4s-1.9 5.3-3 8-2.1 5-3 6.8c-.5 1.1-.7 1.9-.7 2.5 0 .2 0 .4.1.5.1.1.1.2.2.2h.1c3.3-2.1 6.4-4.8 9.4-8.1 2.9-3.3 5.5-6.5 7.6-9.8 2.1-3.3 3.6-5.9 4.4-8.1.2-.5.5-.9.8-1.2.3-.2.7-.3 1.1-.3.6 0 1.1.2 1.5.6.4.4.6.8.6 1.3v.5c0 .2-.1.3-.2.5-.9 1.5-2.1 3.4-3.7 5.8s-3.4 4.9-5.4 7.6c-2 2.7-4.1 5.2-6.2 7.6-2.2 2.4-4.3 4.4-6.3 5.9-2.1 1.6-4 2.3-5.7 2.3-2.1 0-3.9-.6-5.4-1.8-1.5-1.2-2.2-2.8-2.2-4.8 0-1.9.3-3.8.8-5.5.6-1.7 1.2-3.5 2-5.2 1.6-4 3.1-8 4.4-12.1.2-.5.3-1 .4-1.5.1-.5.2-.9.2-1.1 0-.3-.1-.5-.3-.5-.3 0-1 .5-2 1.5-2 2.1-4.1 4.9-6.4 8.5-2.3 3.6-4.3 7.3-6 11.1-1.7 3.8-2.6 6.9-2.6 9.2 0 .5 0 1 .1 1.3-.2 1.3-1.1 1.8-2.8 1.8z"/><path class="st0" d="M864.6 292c-1.9 0-3.7-.6-5.4-1.7-1.7-1.2-2.9-2.7-3.7-4.6-.2-.4-.3-.9-.5-1.3l-.3-.9c-.1-.2-.2-.4-.4-.4-.3 0-.8.4-1.4 1.1-1 1.3-2 2.6-3.1 3.7s-2.3 2-3.7 2.7-2.8 1-4.4 1c-3.4-.3-5.8-1.3-7.3-3.1s-2.3-4.3-2.3-7.6c0-2.7.5-5.6 1.6-8.7 1.1-3 2.6-5.9 4.5-8.5 1.9-2.6 4.2-4.8 6.7-6.5s5.2-2.5 8.1-2.5c1.1 0 2.2.1 3.4.4 1.6.5 3.1 1.2 4.4 2.2.4.3.6.4.7.4.2 0 .4-.2.7-.6.6-.8 1.3-1.3 2-1.6.7-.3 1.5-.5 2.2-.5 1.4 0 2.6.4 3.7 1.2 1.1.8 1.7 1.7 1.7 2.7 0 .5-.1 1-.4 1.4-.2.2-.8 1.6-1.8 4.3-1.1 2.7-2.1 5.9-3.2 9.6-1.1 3.7-1.6 7.1-1.6 10.2v1.5c0 .2.1.4.1.5.1.5.4.8.8.8.2 0 .5-.1.8-.3 2-1.2 4.2-3.6 6.7-7.2s4.8-7.3 6.9-11.1c2.1-3.8 3.5-6.5 4.3-8.3.1-.5.3-.8.6-.9.2-.2.6-.2 1-.2h.5c.6 0 1.1.2 1.5.5.4.3.6.8.6 1.4 0 .4-.1.9-.4 1.5-.2 1.6-1.3 4.3-3.4 8s-4.5 7.4-7.3 11.2c-2.9 3.8-5.6 6.6-8.3 8.5-1.4 1.2-3 1.7-4.6 1.7zm-20.9-6.3c.6 0 1.6-.8 3.2-2.5s3.2-3.7 4.9-6.2c1.7-2.5 3.2-5 4.5-7.6 1.3-2.6 1.9-4.9 1.9-6.7 0-.8-.1-1.4-.4-2s-.7-.9-1.2-.9c-1.3 0-3.1 1.5-5.4 4.4-2.3 2.9-4.4 6.2-6.2 9.9-1.9 3.7-2.8 6.7-2.8 9 0 .7.1 1.3.4 1.9.2.2.6.6 1.1.7z"/><path class="st0" d="M886.8 292c-1.5 0-3-.4-4.7-1.1-1.7-.7-2.7-1.8-3-3.2-.1-1.1-.2-2.2-.2-3.2 0-2.4.3-4.7.9-7.2.6-2.4 1.2-4.8 2-7.3.7-2.3 1.3-4.5 1.9-6.6.5-2.2.8-4.2.8-6.1 0-.5 0-1-.1-1.5 0-.6.1-1.1.3-1.4s.6-.4 1.4-.5c.6-.1 1.1-.1 1.7-.1 2.4 0 4.3.7 5.7 2.2 1.5 1.5 2.2 3.3 2.2 5.6l-.2 2.1V264h.1c.2 0 .4-.2.7-.6.3-.4.7-.9 1-1.4.3-.5.6-.9.8-1.2.1-.1.1-.1.1-.2.2-.2.3-.5.5-.7.8-1.1 1.6-2.2 2.5-3.3.9-1.1 2-1.9 3.3-2.5 1-.4 1.9-.7 2.9-.7 2.3 0 4.3.9 6.1 2.6 1.8 1.8 2.8 3.8 2.8 6.1 0 1.6-.4 3.7-1.3 6.4s-1.9 5.3-3 8-2.1 5-3 6.8c-.5 1.1-.7 1.9-.7 2.5 0 .2 0 .4.1.5.1.1.1.2.2.2h.1c3.3-2.1 6.4-4.8 9.4-8.1 2.9-3.3 5.5-6.5 7.6-9.8 2.1-3.3 3.6-5.9 4.4-8.1.2-.5.5-.9.8-1.2.3-.2.7-.3 1.1-.3.6 0 1.1.2 1.5.6.4.4.6.8.6 1.3v.5c0 .2-.1.3-.2.5-.9 1.5-2.1 3.4-3.7 5.8s-3.4 4.9-5.4 7.6c-2 2.7-4.1 5.2-6.2 7.6-2.2 2.4-4.3 4.4-6.3 5.9-2.1 1.6-4 2.3-5.7 2.3-2.1 0-3.9-.6-5.4-1.8-1.5-1.2-2.2-2.8-2.2-4.8 0-1.9.3-3.8.8-5.5.6-1.7 1.2-3.5 2-5.2 1.6-4 3.1-8 4.4-12.1.2-.5.3-1 .4-1.5.1-.5.2-.9.2-1.1 0-.3-.1-.5-.3-.5-.3 0-1 .5-2 1.5-2 2.1-4.1 4.9-6.4 8.5-2.3 3.6-4.3 7.3-6 11.1-1.7 3.8-2.6 6.9-2.6 9.2 0 .5 0 1 .1 1.3-.2 1.3-1 1.8-2.8 1.8z"/><path class="st0" d="M937 292.3c-2.3 0-4.5-.5-6.6-1.4-2.2-.9-4-2.4-5.4-4.3-1.4-2-2.1-4.5-2.1-7.7 0-2.4.4-5 1.3-7.8.8-2.8 2-5.4 3.4-7.9s3.1-4.5 4.9-6 3.8-2.4 5.9-2.4c1.4 0 2.7.2 4.1.7 1.4.5 2.5 1.2 3.5 2.1.9.9 1.4 2 1.4 3.4 0 .5-.1 1.1-.4 1.5-.3.5-.7.7-1.3.7-1-.1-1.7-.3-2-.8-.3-.5-.4-1-.4-1.6 0-.3-.1-.6-.2-.9-.1-.2-.2-.4-.5-.5-1.7.2-3.3 1.5-4.6 3.9-1.3 2.4-2.4 5.2-3.2 8.5-.8 3.3-1.2 6.3-1.2 9.1 0 1.2.1 2.3.2 3.4.2 1 .4 1.9.8 2.6.4.7 1 1 1.7 1 .5 0 1.1-.2 1.9-.5 2.9-1.2 5.9-3.5 9-6.8 3.1-3.3 5.9-6.9 8.5-10.8s4.5-7.4 5.9-10.4c.5-1 1.2-1.5 2-1.5.7 0 1.3.3 1.9.9.6.6.9 1.5.9 2.5 0 1.8-1.5 4.9-4.4 9.3-2.9 4.4-6.2 8.5-9.7 12.5-3.5 4-6.4 6.5-8.7 7.7-1.8 1.1-4 1.5-6.6 1.5z"/><path class="st0" d="M964.3 286.6c.1 1.2.6 1.8 1.5 1.8.3 0 .6-.1 1-.2 2.9-.9 6.1-3 9.5-6.1 3.4-3.2 6.7-6.7 9.8-10.8 3.1-4 5.5-7.8 7.4-11.2.4-.6.9-1 1.7-1 .6 0 1.2.2 1.8.6.6.4.8.8.8 1.3v.3c-.8 1.8-2 4.1-3.6 6.6-1.7 2.6-3.6 5.2-5.9 8-2.3 2.8-4.7 5.3-7.4 7.7s-5.3 4.3-8 5.8-5.4 2.3-7.9 2.3c-.8 0-1.6-.1-2.4-.3-3.1-.9-5.4-2.4-6.8-4.7-1.4-2.3-2-4.8-2-7.7 0-4.5 1.2-9 3.7-13.6s5.4-7.8 8.8-9.7c1.7-.7 3.3-1.1 5-1.1 2.7 0 5 .8 7.1 2.3 2 1.6 3.2 3.5 3.6 5.8.1.3.1.7.1 1 0 2.3-.8 4.4-2.3 6.4-1.5 2-3.4 3.6-5.7 4.8-2.3 1.2-4.6 1.8-6.8 1.8-.4 0-.9 0-1.3-.1l-.4-.1c-.3 0-.5.2-.6.6-.6 1.9-.9 3.8-.9 5.5-.1 1.4 0 2.6.2 4zm12.4-24.6c0-1.4-.5-2.1-1.4-2-.3 0-.6 0-.9.1-1.5.7-3 2.3-4.4 4.8-1.4 2.5-2.6 4.7-3.4 6.6-.2.3-.3.6-.5.9-.1.2-.2.4-.2.5 0 .2.2.4.5.4l.2-.1c2.4-.6 4.6-2 6.6-4.2s3.2-4.6 3.5-7z"/><path d="M448.3 208c-.7 11.1.6 19.9 3.7 26.4 3.2 6.5 7.7 11.4 13.7 14.7 6 3.3 13.1 5.1 21.3 5.6 8.2.5 17.2.1 27-1.1 10.2-1.3 20.3-3.1 30.3-5.4l31.4-7.1c10.2-2.3 20.5-4.4 30.8-6.2 9.3-1.7 18.6-2.7 28-3.2 16.8-.4 33.7 2 50.8 7.2 17 5.3 34 13.6 50.8 25.1 1.4 1 2.3 1.9 2.6 2.8.3.9.2 1.6-.3 2.1s-1.3.7-2.3.6c-1.1-.1-2.3-.7-3.7-1.7-12.7-9.2-26-15.6-39.8-19.3-13.5-3.7-27.5-5.7-41.5-6.1-13.6-.3-27.2.7-40.6 3-13.3 2.3-25.7 4.9-37.4 7.8-11.7 2.9-22.3 5.6-31.8 8.2-9.5 2.6-17.4 4-23.7 4.1-11.4.5-22.7-1-33.6-4.5-10.8-3.4-20.5-8.1-29-14-8.6-5.9-15.6-12.7-21.1-20.3-5.5-7.6-8.7-15.5-9.7-23.7-.6-5.1-.9-10.2-.9-15.4-.1-5.4 0-10.8.1-16.2-2.9 6.1-6 11.9-9.3 17.4-3.1 5.3-6.8 10.2-10.9 14.7-3.7 4.1-8.2 7.5-13.1 10-4.9 2.4-10.3 3.4-15.7 2.9-5.7-.4-10.9-2-15.6-4.6-4.6-2.6-8.8-5.8-12.4-9.7-3.5-3.7-6.3-8.1-8.1-12.9-1.8-4.4-2.8-9.1-3.1-13.9-.2-8.6.9-17.6 3.4-26.9 2.5-9.3 5.5-18.9 9.1-28.8 3.7-10.3 7.3-20.6 10.9-31 3.7-10.9 6.5-22 8.5-33.4.6-2.7.9-5.3 1-7.8.1-2.3 0-4.7-.4-7-.3-1.9-1-3.7-2-5.4-.9-1.5-2.1-2.5-3.4-2.9-1.1-.4-2.7-.7-4.9-.7-5.5-.1-11 .9-16.3 2.7-3.2 1.1-6.2 2.6-9 4.5-5.4 3.5-10.5 7.4-15.4 11.6-5.2 4.4-9.8 9.6-13.9 15.4-4.2 6.1-7.6 12.7-10 19.7-2.6 7.2-4 15.3-4.1 24.2 0 1.7.1 3.1.2 4.2s.2 1.9.2 2.2c.3.3.5.8.6 1.2.1.4 0 .8-.1 1.2-.1.3-.3.4-.7.3-.3-.1-.9-.5-1.8-1.4-1.8-1.9-4.1-4.5-7-8-3-3.6-5.6-7.5-7.8-11.6-2.3-4.4-3.9-9.1-4.7-13.9-.8-5-.1-9.9 2.1-14.8 3.2-6.6 7.5-12.7 12.5-18.1 5.3-5.7 11.3-10.6 17.9-14.6 6.8-4.2 14.2-7.5 21.8-9.8 7.8-2.4 16-3.7 24.2-3.8 8.2-.2 14.9.2 20.2 1.2 5.3 1 9.7 2.4 13.2 4.2 3.5 1.8 6.3 3.8 8.5 6.1 2.2 2.2 4 4.4 5.3 6.6 3 4.1 4.4 9.1 4.2 15.1S396.1 68.7 394 76c-2.4 7.9-5 15.7-8 23.4-3.3 8.5-6.5 17.1-9.7 25.6-3.3 8.8-6.3 17.7-9 26.7-2.6 8.7-4.4 17.6-5.2 26.6-.8 8.9-.2 15.5 1.7 20s5.7 6.7 11.2 6.7c4.8 0 9.2-1.4 13.4-4.3 4.1-2.9 8-6.6 11.5-11.3 3.5-4.6 6.8-10 9.9-15.9 3-6 5.9-12.1 8.5-18.3 2.7-6.3 5.1-12.4 7.3-18.5s4.2-11.5 6-16.3c1.9-7.5 3.8-14.8 5.8-21.9 2-7.1 3.9-13.8 5.7-20 1.8-6.3 3.4-12 4.7-17.2s2.3-9.7 3-13.6c.6-4.8.6-8.1 0-10.1-.7-1.6-.3-2.3 1-2.3s3.2.6 5.7 1.7c2.5 1.2 5.2 2.7 8.1 4.6 2.9 1.9 5.6 4 8.1 6.2 2.5 2.3 4.5 4.6 6 6.9 1.5 2.3 1.9 4.4 1.1 6.3-5 14.9-9.4 28.4-13.3 40.4-3.7 11.4-6.9 23-9.7 34.7-2.6 11.2-4.7 22.5-6.3 33.9-1.6 11.5-2.6 24.1-3.2 38z" fill-rule="evenodd" clip-rule="evenodd" fill="#fff"/></svg>