<svg version="1.1" id="Ebene_1" xmlns="http://www.w3.org/2000/svg" x="0" y="0" viewBox="0 0 590 590" xml:space="preserve"><style>.st3{fill:#fff}.st22{fill:#eaeaea}</style><path d="M251.4 50.5h.2c.6.7 1.2 1.3 1.9 2 5.6 1.7 9.9 4.6 15.1 7 4.5 2 8.8 5.4 13.2 7.3.6-2.7-.4-4.9 1.7-7.3 5.5-1.3 9.6 5.1 10.7 9.6l.1.6c1 .6 4.4.9 4.8-.6 2.1-1 .4-5.3.3-7.1 0-1.7-.6-4.5 1.1-5.5 2.2-.7 4.5-.8 6.4.8 3.6 2.8 6.2 7 7.8 11.2 1.5 2.4.9 4.8 1.8 7.4 1.6 2.8 4.6 5 7.4 6.6 4.4 2.9 11 2.2 15.9 1.1 4.6-2 10.2-2 15-1 1.3 1.2 2.7 2.5 3.9 3.9.7 2.8 1.3 5.4.2 8.2-2.1 4.2-6.7 6.6-11.1 7.8-1.3.4-3.7.3-4.5 1.6 0 .7.3 1.4.9 2 3.9 5.1 8.2 10.8 10 17 .5 1.8 1.7 3 1.5 5 .1 2.7.7 6.6-.8 9-2.3 3.2-6.7 5.7-10.7 4.7-1.5-.2-2.4-1.6-4-1.4l-.5.8c.8 7.6 1.1 16.1-4.7 21.9-2 2-6.5 2.1-8.2 4.1.7 3.1 2.3 6 3.3 9 3.5 10.4 8.2 20.8 11.9 31.1 4.5 12.3 8.5 25.2 10.9 38.1 1.4 3.3.9 6.8 1.8 10.4.9 8.4 1.2 16.7 0 25.1l1.1-.1c2.4-2.8 5.4-5.5 8.7-7.3 16.8-9.7 39.7-5.5 52.3 9.2 4.7 6.1 7.9 12.8 8.1 20.5.9 10.9-3.9 20.6-8.6 30-5.2 8.4-11.9 15.7-16.6 24.4-3.2 5.8-5.4 11.6-3.9 18.3.9 5.4 3.5 9.9 6.4 14.4-1.4 2.5 1.4 3.9.1 5.7-3.6-.6-7.8-1.6-10.5-4.2-2.3-.1-3.8-1.2-5.5-2.5-4.9-3.4-9-7.9-11.9-13.1-.8-1.4-1.8-2.4-2.8-3.7.4-.4.4-1 .2-1.8-1.8-4.9-3.4-10.3-3.1-15.5-.4-12.7 7.9-24.9 14.2-35.3 1.8-3.9 3.8-7.2 3.7-11.7.4-6.7-4.6-11.6-10.5-13.7-7-3.1-15.8-2-23.4-1.8-1.8 3-2.2 6.9-4.1 9.9-4.4 10.2-11.6 19.9-20.7 26.4-5.5 5.2-11.9 8.9-18.8 11.9-2.1 1.3-4.5 1.2-6.4 2.7-.3 1.1-.5 2.3-.7 3.4l-1 1.2c-.8-1.2-.5-2.6-1-4-.6 0-1.2.2-1.8.4l-2.7.6c-.9 2-.1 4.7-.2 6.8-.1 11.3.3 22.7-.5 34-.1 1.1 0 2.1.4 3-1.1 3.9-1.1 7.9-1.4 12-.8 6.1-1.3 11.8-2.4 17.8-1.3 3.2-1.1 6.9-2.2 10.1-.8 2-1 3.9-1.5 5.9-2.8 7.4-4.9 14.3-10.1 20.6-1.8 2.1-3.4 4.9-5.6 6.6-1 .4-1.9.8-2.9.1 1.1-1.5 2.8-2.6 3.7-4.2.2-1.8-3.5-1.7-4.6-2.2-6.8-1.2-15.5-2.2-22 .4-8.1 1.1-15.3 9.4-13.9 17.8.9.2 1.5.8 1.7 1.8-6-.2-11.9-.5-17.9.5-6.5 2.1-13.3 3.6-16.4 10.6-1.8 4 .6 7.3-.3 11.1-1.4-1.3-.8-3.1-2.2-4.2 0-1.2-.1-2.4-.4-3.5-3.4-.2-6.3-1.8-9.7-1.4-3.8 0-9.9.4-12.2 3.7-1.1 1.2-2.8.8-3.8 2.4-.2.8-.6 1.4-1 1.9-2 .6-1.9 2.5-2.7 4-1.5 6.1 1.5 12.6 6.8 15.7 8.8 4.9 17.3 3.6 26.9 3.7 2.2.2 3.8-1.2 6-1 5.6-.3 10.6-.5 16.1.2 6.1.9 12.8 1.8 18.6-1.1.8-1.6-2-2.8-1.7-4.7 3.3 2.1 6.1 5.5 9.7 7.3 4.3 2.1 8.5 4 13.3 4.5 5.6.4 11.4.5 17 0 2.8-.1 5.4-1.7 8.1-2.6 6.6-3.3 8.6-10.2 8.4-17.1 2.8-.9.4 3.1 2.4 2.9-.2 3.4.1 7 2.5 9.7 2.9 3.5 8.4 5.2 12.6 6.6 7.3 1.2 15 .4 22.1-1.3 5.9-1.5 11.2-3.8 14.9-8.8 2.1-2.4 3.8-5.1 5.7-7.8.6 2.5-1.3 4.7-2.3 6.8-.9 1.9.6 1.9 1.8 2.6 1.3.5 2.6 1.1 3.9 1.5 3.5.9 8.6 1 12-.1 2.7-.6 6.5-.2 8.9-1.1 1.3-.2 2.7-.2 4.1.1 1.1.6 2.7.2 4 .3 6.2 0 12.9 1.5 19 .6 4.1.9 8.6.2 12.4-1.7 3.1-1.8 3.3-5.2 2.9-8.4-.2-1.4-.6-3.5-2.2-4-.4-2.4-4.8-5.6-7.1-5.9-6-3.8-14.1-4.7-21-5.1-3.9.2-7.8-1.4-10.8 1.9-.3-1.5 1.4-2.9 2.8-2.8 2.1.3 3.8-.7 5.8-1.3-.4-3.2-3-6.7-5.5-8.8-3.2-4-8.7-5.9-13.3-7.7-6.2-1.5-11.8-.5-17.9-.6 1.8-.9 3.4-1.8 5.5-2.2.5-.8.6-1.5.2-2.2-1.9-4.2-4.9-7.8-9.5-9.2-4.5-2.7-10.5-2.4-15.3-.3-3.8 1.2-6.6 3.5-9.9 5.6l-.9-.3c-.2-1.6-.2-2.6-1.6-3.5-3.1-2.4-4.5-5.8-7.2-8.5-1.7-3.6-4.2-7.4-5.5-11.1-5.4-16.8-8.1-33.2-8.8-50.9 0-2.5-.6-4.6.1-7h1c1 2.5.1 5.5.7 8.2 1.5 4.6.6 9.6 1.7 14.4.5 7.8 2.3 14.8 3.9 22.4 2.7 11.9 7.5 22.9 16.2 31.6 1.5 1.4 2.6 1.1 3.9-.2 2.4-1.8 5.5-2.5 8.1-3.8 5.2-1.2 10-.4 15 1 2.2 1.2 4.5 2.9 6.5 4.4 1.3 2.1 2.6 4.2 3.5 6.6.5 1.4.7 2.6 2.5 2.7 6.7-.2 12.8 2.1 18.6 5.3 5.1 3.4 9 8.3 10.7 14.3 2.4.9 5.3.4 7.8.9 8 1.5 17 4.2 22.4 10.8 1.6 3.4 2.5 6.7 1.9 10.5-.2 1.5-1.6 2.5-1.4 4.1l-.1.4c-2.5.8-4.1 2.4-6.8 2.6-14.4 1.5-28.8-1.7-43 .1-5.4.3-11.4.7-16.7-.5-1.5-1.1-4.4-2.6-6.2-1.4-4.5 5-11.5 7.9-18.1 8.2-5.5 2.1-11.2 1.6-17 1.5-4.5-.8-8.7-1.8-12.4-4.6-1.6-1.4-3.4-1.5-4.3-3.7-1.1-1-1.4-3.5-2.9-1.4-4.1 6.8-11.8 9.7-19.4 9.7-6 0-13 .6-18.7-1.5-4.8-.9-9.6-3.3-13.5-6.3-2.5-.9-4.1 1.8-6.8 1.6-11.1.5-21.9-1.2-33 0-8.8.1-19.1 1.4-27.4-1.4-3-.7-4.8-2.6-7.7-3.3 0-2.4-3-3.9-3.6-6.2-1.2-3.7-2.1-7.2-.6-11 .9-4.8 5.3-8.8 9.5-10.7 2.4-1.8 5.4-1.2 7.8-2.1 3.3-.5 7 .4 10.2-.3 1.1.5 2.6 1.4 3.8.9 1-2.3 1.7-4.4 3.6-6.3 5.5-5.5 13-7.2 20.5-8 2.7-.3 6.4.6 8.8-.5.4-5.3 2.2-10.3 6.1-14.1 3.1-2.6 7-4.6 11-5.3 9.2-2.4 18.8-.8 27.7 1.9 8.7-10.3 12-25.6 14.2-38.6.8-2.9.3-5.7 1.5-8.5.2-5.5 1.2-10.9 1.1-16.5 1-3.7.2-7.4 1-11.1.2-11.6.5-23.1.1-34.7-1.1-.6-3.4-.6-4.6 0l-.2.7c-.6 1-1.1 1.6-1.4 1.8-.3-.7-.7-1.4-1.2-1.9-1.3-1.8-5.7.1-6.7 1.6-2.2 5.1-5 9.6-10.4 11.7-3.2 1.1-6.1 2.1-9.6 1.3-1.8-1.4-3.6-2.3-3-5 2.3-3.6 3.9-9.4 2.5-13.4-6.6-2.5-13.4-5.7-19-10-4.8-4.4-8.8-9.9-11-16-.4-2.7-1.7-5-2.4-7.6-1.9-.7-6.2.1-7.1 2-3.3.1-6.6.1-9.8 0-.8-1.9-2.3-1.5-4-2-1.4-2.2-3.9-2.3-5-5-1.1-2.1-.5-5.2 2-5.9 8.8-2.5 13.7-11.4 22.2-14.9 1.7-.5 1.7-3.1 2.1-4.6 1.8-12.6 5.7-24.1 10.5-35.9.4-1 .6-1.9.4-2.8-.8-.1-1.5.3-2.1 1.1-2.1.3-4.4.6-6.5.4-1.7-.5-3.9-1.7-3.8-3.8-.9-5 4-10.2 7-13.7 3.2-4.1 6.6-8.1 10.5-11.5 1.3-1.2 3.6-2.1 4.2-3.8 2.2-11.1 3.7-22.6 3.5-34-.1-2 .3-4.2-.4-6.1l-.3-1.8c-1.4-.6-3.2 0-4.8-.2-1.9.1-4.2-.6-6 .1-1.1-1.2-2.8-1.1-4.4-1.6-7.3-2.2-14.5-5.7-20.4-10.7-9.3-7.1-14.2-17.8-16.6-28.9-.7-5.1.1-10.1 1.8-14.9 2-4.6 5.9-8.3 10.8-9.7 6.3-2.5 13.5-1 19.9-.6 4.5.4 8.6 2.1 13 2.9 7.5-1.1 13.9-4.7 20.5-8.3 5.9-4.3 9.7-10.2 13.3-16.4-.5-1.6-2.9-2.7-4.2-3.6-7.6-5.5-15-11.6-21.5-18.4-3.1-1.9-1.6-4.1.5-5.9z" fill="#1f212a"/><path d="M254.1 54.7c2.3 1.5 7.2 1.4 6.4 5.3-.1 1.3-.6 2.1-1.5 2.3-1.8-.7-3-2.6-4.5-3.8-1.3-1.1-2.5-2-3.5-3.6-.2-1.7 2.2-.6 3.1-.2z" fill="#e370df"/><path class="st3" d="M301.5 58.5c3.4-1.1 5.3 1.7 7.2 3.9 5.5 7.4 5.8 17.8 5.4 26.6.4 5.9 0 12-.2 17.9l-.7.1c-.2-.9-.5-1.4-.8-1.6l-.5 1.7c-2.2-1-1-5.9-1.2-7.8-3 .5-2.2 6.5-3.9 8.5-2.7 2.9-5.9 4.4-9.7 5.5-5.9 2.4-11.4 5.2-16.2 9.5-2.4 2.3-5.3 3.1-8.5 3.5.2 1.7 2.1 2.9 2.5 4.7.8 3.1.7 7.1-.9 9.9-1.5 4.3-6 7.7-9.5 10.5-6.5 4.7-14.5 7-22.5 6.5-3.9.4-7.2-1.1-11-1.1-2.2-1-4.4-.9-6.7-1.6-1.2 1.4.9 1.9 1.8 2.4 9 4.2 18 4.9 27.9 4.2 2.2-.9 4.6-1.3 6.8-2.3 2.4-1.7 5.2-2.7 7.6-4.3 1.5-3.1 7-5.4 7-9.1.6 0 1.2.3 1.8.9-2.1 4.8-6.8 9.8-11.3 12.6-7.7 4.3-16.2 5-24.9 4.5-5.6-.3-11.2-2.6-16.2-5.1-8.8-4.1-16.3-10.7-20.9-19.2-3.9-7.7-6.8-17-4.4-25.6.8-1.6 1.4-3.3 2.1-5 2-2.5 4.3-4.6 7.4-5.7 5-2.3 11.7-1.8 17.1-1.4 8.8 1.1 17.5 3.8 26 6.5 2.5.6 5.1 2.3 7.6 1.6-4.1-2-7.8-3.9-12.2-5.1-.5-.3-.9-.7-1-1.1 7-1.1 13.9-5.2 19.6-9.3 4.6-3.7 8-9.2 11.1-14.1.2-.6.7-.8 1.4-.7 3.2 1.9 7.4 6 11.3 4.4 4-.9 5.6-6.7 2.9-9.7-.4-.7-2.6-1.9-2.3-2.7 3.5-.2 7.3-2.3 10.5-.5 1.3-.7.9-3.5 1.3-4.8 1-.5.8 2.8 1.1 3.5 1.6-1.4-.7-6.8.6-8.4l.9.1c3.3 4.5 5.3 9.8 5.6 15.4 1.7-5.2-.4-11.1-3.5-15.6-1.1-1.3-3-3.5-4.8-1.8-.2.6-.5 1.2-.8 1.6-.2-.8-.2-1.9.1-2.9z"/><path d="M263.8 59.3c1.8.9 3.6 1.3 5.1 2.9-.2 1-.4 2-.7 3-2.2-.9-4.3-2.1-6.2-3.4-.3-1.4-.1-4 1.8-2.5z" fill="#e476cf"/><path d="M287.8 62.3c.4.9.8 1.8 1.1 2.7-1.7 1.3-3-2.8-4.8-2.1-.1-2.7 2.5-1.9 3.7-.6z" fill="#8f8f8d"/><path d="M261.9 61.7c2 1.3 4 2.5 6.2 3.4.5 1 .4 2.2-.6 3.5-2.3.9-3.5-1.9-5.2-3-1.4-1.1-1.8-2.5-.4-3.9z" fill="#ef8bea"/><path d="M287.8 62.3c2.3 1.3 3.6 5.2 4.7 7.5-1.9.5-1.7-2.6-2.7-3.7-2.1.1.7 3.5-.1 4.7-2.4.9-3.6-1-5.4-2-.3-1.9-.4-4-.2-5.9 1.9-.6 3.1 3.4 4.8 2.1-.3-.9-.6-1.8-1.1-2.7z" fill="#f2edef"/><path d="M301.2 63.1h.5v.6h-.5v-.6z" fill="#615956"/><path d="M271 64c1.8-.8 3.5 1.4 5.1 1.9 3.1.6 2.4 4.2 1.4 6.3-1.9-1.9-4.4-2.6-6.4-4.4h-1c.6-1.1.2-2.6.9-3.8z" fill="#e95fe1"/><path d="M270 67.8h1c2 1.8 4.5 2.5 6.4 4.4-.2 1.2-1.1 2.7-2.4 3-2.1-1.4-5.1-3-6.3-5.2.4-.8.8-1.5 1.3-2.2z" fill="#f886ed"/><path d="M280.1 69.1c2 .1 3.9 2.2 5.6 3.2.7 1.1.4 4.8-.5 5.8-1.8-2-4.1-3.2-6.1-5.3.5-1.2.5-2.5 1-3.7z" fill="#e961e0"/><path d="M279.2 72.8c2 2.1 4.3 3.3 6.1 5.3-.8 1.2-1.6 2.7-3.3 2.1-1.5-1.2-3.3-2.1-4.8-3.4-.1-1.4 1.4-2.8 2-4z" fill="#f180f1"/><path d="M288.2 74.3c2.7.2 4.7 4 3.5 6.6-2.3.6-3.2 1.5-5.9 1.3-1.9-.3 0-2 .4-2.8 1.2-1.7 1.3-3.5 2-5.1z" fill="#ec69de"/><path d="M316.3 79.5l.4-.1c1.9 2.1 4.1 4.1 6.7 5.2 4 2.4 9.3 1.9 13.8 1.6-.6 2-5.3.2-7 1.1-.1 1.3 2.9 1.9 3.8 2.1 4.2.3 10.3 1.7 14-.6.9-.1 1.8-.2 2.6-.2v-.2c-1.9-.1-2.3-.1-3.1-1.9-1.2-1.1-3-.3-3.9-1.6.9-1.3 3.9-.9 5.3-.7 2.9 1.1 4.9 3.9 5.7 6.8-.1 1-2.1 2.1-3 2.6-4 .4-7.6 1.8-11.6 1.4-2.5.1-4.7-1-7.1-.6-2.1-1.3-4.1-2.6-6.1-4-1.2-.7-1.8-1.9-3.2-2 2.3 3.4 6.4 5.5 8.6 8.7 0 2-.4 2.6 1.6 3.3-.7 1.4.6 2.3.1 3.5-2 .9-2.1-2.7-4-3.5-2-1.3-2.4 1.4-1.7 2.7-.3 1.4.9 2.5.9 4-1.4-.5-1.7-2.4-2.8-2.7l-.2 1.7c-1.6-3.9-2.8-8.3-2.4-12.5h-1.1c.8 2.3-.2 4.1-.1 6.5-1.7 2.5.1 4.2-1.6 6.8-.5-.2-1-.3-1.5-.5-1.4 1.1-1.3 3.1-1.4 4.8l-1.7.1c-.2-1-.3-2-.2-3.1.4-9.8 0-19.2.2-28.7z" fill="#a1d9fb"/><path d="M291.8 80.8c.3 2.4-5.7 3.7-5.9 1.3 2.7.3 3.5-.6 5.9-1.3z" fill="#b17cad"/><path d="M349 84.2c4.3-.7 8.4 2.2 8.2 6.8.1 4.3-3.6 6.8-7.1 8.3-3 1.2-6.8 2.5-10.1 2-2.5-1.9-4.9-4.6-7.1-7 2.4-.4 4.7.8 7.1.6 4.1.4 7.6-1 11.6-1.4.8-.5 2.9-1.5 3-2.6-.8-2.8-2.7-5.6-5.6-6.7z" fill="#80b2ed"/><path d="M343.7 84.9c.9 1.2 2.7.5 3.9 1.6.8 1.8 1.2 1.8 3.1 1.9v.2c-.9 0-1.8.1-2.6.2-3.8 2.4-9.8.9-14 .6-.9-.2-3.9-.8-3.8-2.1 1.7-.8 6.4.9 7-1.1 2-.4 4.2-1.3 6.4-1.3z" fill="#c4effe"/><path d="M280.3 88.3c2.8-.9 3.8 2.6 3.3 4.6-.5 2-2.5 2-4.2 1.6-1.4-2-1.3-4.7.9-6.2z" fill="#212122"/><path d="M298 90.1c3.8-1.8 5.2 4.8 1.9 5.8-3.7.9-4.5-4-1.9-5.8z" fill="#262022"/><path d="M332 97c1 .4 1.7 1 2.3 1.8 2.6 2.6 5.4 4.6 6.9 8.1-.2.9 0 1.8.6 2.9-1.8.3-3.2 0-4.7 1.3-1.7-2-3.7-3.8-5.5-5.7-.9-.9-2.1-2.5-3.5-2.4-.7-1.3-.3-4 1.7-2.7 1.9.8 2 4.4 4 3.5.5-1.2-.8-2.1-.1-3.5-2.1-.8-1.7-1.4-1.7-3.3z" fill="#b6c5f9"/><path class="st22" d="M310.6 99.3c.2 1.9-1.1 6.8 1.2 7.8.3 2.9-2.1 7.3-3.7 9.9-3.2 3.9-8.7 5-12.9 8.3-3 2-5.6 4.2-8 6.9-4.2 4.3-6.1 10.5-10 14.9-.6-.5-1.2-.8-1.8-.9 0 3.7-5.5 6-7 9.1-2.4 1.6-5.2 2.6-7.6 4.3-2.2 1-4.6 1.4-6.8 2.3-9.8.7-18.9 0-27.9-4.2-.9-.5-3-1-1.8-2.4 2.2.7 4.5.6 6.7 1.6 3.8 0 7.1 1.5 11 1.1 8 .4 16-1.8 22.5-6.5 3.4-2.8 7.9-6.2 9.5-10.5 1.6-2.9 1.6-6.8.9-9.9-.4-1.8-2.2-3.1-2.5-4.7 3.2-.5 6.1-1.2 8.5-3.5 4.8-4.3 10.3-7.1 16.2-9.5 3.8-1.1 6.9-2.6 9.7-5.5 1.7-2.1.8-8.1 3.8-8.6z"/><path d="M322.3 100l.3.2c.2 4.8 2.7 9.1 3.5 13.6-1.9.4-3.2 1.5-5.2 1.4-1.1-.5-.9-2.8-1.3-3.9h-.4c-1 2.8-.1 5.7-.4 8.8-1.1-2.6-.1-6.2-1-9 .1-1.6 0-3.7 1.4-4.8.5.2 1 .3 1.5.5 1.8-2.6-.1-4.3 1.6-6.8z" fill="#b8c4f9"/><path d="M328.1 103c1.4-.1 2.6 1.5 3.5 2.4 1.8 2 3.8 3.7 5.5 5.7v.9c-2 .6-3.4-.1-5.1-.8-1.1-1.3-1.8-2.9-3-4.2-.1-1.5-1.2-2.6-.9-4z" fill="#d8e0fe"/><path d="M326.2 104.3c1.1.3 1.5 2.2 2.8 2.7 1.2 1.2 1.9 2.8 3 4.2 1.6 4.7 4.7 7.7 5 12.8-1-.1-1.9-.1-2.8.1-.6-.6-1-1.2-1.2-1.9-2.4-5.2-5.6-10.5-7-16.1l.2-1.8z" fill="#909ae9"/><path class="st22" d="M313.2 107l.7-.1c-.4 14.4 1 28.2 5 42.1 1.4 6.4 3.8 12.2 5.7 18.4 9.6 26.9 21.6 52.2 26.7 80.6 2.3 12.1 2.7 24.9.6 37-3.2 17.4-12.6 33.3-27 43.8-9.5 7.9-20.9 12.3-32.9 14.9-3.7.5-7.4-.2-11 .5-3.2 1.1-5 3.7-6.2 6.8-1.3 3-3.9 5.4-6.8 6.8 1.4-2.7-.8-4.5-2.2-6.7 1.1-.6.9-2.4 1.7-3.4 2-2.7 1.2-5.5 2.5-8.6 1-3.5 3.9-5.5 7.2-6.6 6.3.2 12.5-.2 18.6-1.7 4.6-2.1 8.9-4.6 12.4-8.4 2.8-2.5 6.8-5.4 8-9 2.6-1.4 3.4-5.7 5-8.1 3.2-1.5 3-4.3 5.2-6.6.8-3 2.1-5 3.2-7.8.1-2.4.2-4.7 1.1-7 .8-4.9 2.2-9.6 2.5-14.6l-.6-1.4c1.4-2.1.2-3 .9-5 .4-13.1-1.9-26.4-5.7-39-3.6-12.6-8.9-24.1-13.2-36-4-10.4-8.3-21.1-10.7-32-.1-1.7-.3-3.4-.8-5-.5-5.3-.3-10.7-.6-16-.1-1.5-.9-2.6-2-3.6-1.3-.3-2.8.1-4.2.1-6.9 4.2-10.5 11-13.3 18.5-1.4 2.2-2.9 4.5-4.6 6.4.1.4.1.8 0 1.1-3 1.6-6.1 4.4-9.4 5.4-1.9-.1-3.1 1.2-5.1.7 5.7-2.9 10.5-7.3 13.9-12.7 3.8-5.4 6.3-11.6 10.4-16.7 2.7-2.7 5.3-5.3 8.6-7.4 3.7-3 9.1-4.3 12.4-7.7 2.4-3.3 3.7-7.8 4-12z"/><path d="M341.2 106.9c2.5 1.6 4.8 5.3 6 8-.7.8-1.3 1.8-1.6 2.8-1.2-.5-1.6-.4-2.7.3-2.1-1.4-3.5-4.9-5.8-6.2v-.9c1.5-1.2 2.9-1 4.7-1.3-.6-.8-.8-1.8-.6-2.7z" fill="#c3b8fa"/><path d="M316.2 111.1l1.7-.1c.9 2.8-.2 6.4 1 9 .4 2.4-.2 6.2 1.2 8.2.6 1.6 0 3.5.8 5 1.1 1.2.3 3.3.2 4.8-.5 2.3.3 5.1-.8 7.2-.8-1.3-1.1-2.6-1.4-4.1-.4-4.4-2-8.5-2.5-13-.4-5.6-1-11.5-.2-17z" fill="#9a93e1"/><path d="M319.2 111.2h.4c.4 1 .2 3.4 1.3 3.9.5 2.8-.3 6.5 1.2 8.9l-.1 1.8c-.7.7-1.4 1.5-2 2.4-1.4-1.9-.8-5.8-1.2-8.2.3-3.1-.6-5.9.4-8.8z" fill="#d4cafb"/><path d="M332 111.1c1.8.7 3.1 1.4 5.1.8 2.3 1.3 3.7 4.8 5.8 6.2 1.5 3.9 2.6 7.6 3.6 11.6-.8 1.2-2.9 1.1-4.1 1-.8-2.1-2.7-3.4-3.8-5.5l-.7-.1-1-1.2c-.2-5.1-3.3-8.1-4.9-12.8z" fill="#e4d0f8"/><path d="M205.4 113.3c5.5-.2 10.8 2.8 13.3 7.9 1.2 2.3 2.8 5.8 1.9 8.4-.6-1-1.1-1.7-1.6-2.1-1.4 1.4-3 2-4.9 1.2-3.4-.9-6-3.2-7.7-6.2-2-2.2-2.2-5.4 0-7.6-.5-.5-.8-1.1-1-1.6z" fill="#242021"/><path d="M326.1 113.8c1.8 1.4 2.4 4.2 3.1 6.2-.3 2.7-2.2 3-4.3 4-1.4-.7-1.5-1.1-2.9 0-1.5-2.4-.7-6.1-1.2-8.9 2.2.1 3.5-.9 5.3-1.3z" fill="#c4b5f6"/><path d="M347.2 114.9c2.5 2.6 4.1 6.6 5.1 10 .8 3.2 1.9 7.6.2 10.7-2.4 3.5-7.1 5.6-10.6 2.3-.6-1.9-1.1-3.6-1.3-5.7-1.2-2.3-1.7-4.7-2.7-7.1l.7.1c1.1 2.1 3 3.4 3.8 5.5 1.3.1 3.4.2 4.1-1-1-4-2.2-7.8-3.6-11.6 1.1-.8 1.5-.8 2.7-.3.4-1.1.9-2.1 1.6-2.9z" fill="#d1a5f0"/><path d="M329.3 120c2.2 3.4 4.8 7.7 5 11.8-1.9 0-4.2.6-6-.1.2-.4.4-.9.5-1.4-2.3-1.1-1.4 2.6-2.9 3.7-2.3-1.8-2.3-6.2-3.8-8.2l.1-1.8c1.3-1.1 1.5-.8 2.9 0 1.9-1.1 3.9-1.3 4.2-4z" fill="#d2a7f3"/><path d="M334.1 124c.9-.2 1.8-.2 2.8-.1l1 1.2c1 2.4 1.5 4.8 2.7 7.1.1 2 .6 3.8 1.3 5.7-4.2-2.9-6.2-9.2-7.8-13.9z" fill="#a28be2"/><path d="M322.1 125.8c1.5 2 1.4 6.4 3.8 8.2.6 2.1 1.5 5.5 3 7 .2 3.7 2.4 6.2 1.9 10-.2 1.3-2.1 2.7-3.1 1.3-2.2-3.8-3.2-8.7-4.1-12.9-.5.1-.9.4-1.4.7-.1-1.2-.5-1.9-1.1-2.1.1-1.4.9-3.6-.2-4.8-.8-1.5-.1-3.4-.8-5 .6-.9 1.3-1.6 2-2.4z" fill="#f1c0f5"/><path d="M252 128c4.8-.7 10.3.8 13.6 4.5.3 1.4-1.7 2.6-2.1 4-3 3.2-9.4 3-13.4 2.3-2.7-.5-6.5-2.1-6.5-5.3-.9-.3-1.3-.8-1.2-1.3 2.9-2.1 5.9-3.7 9.6-4.2z" fill="#221f20"/><path d="M328.8 130.3c-.2.5-.3.9-.5 1.4 1.8.7 4.1.1 6 .1 1.8 1.3 2 4.2 1.7 6.2-2.5-.1-4.1 1.3-6.7 1.3l-.4 1.7c-1.6-1.5-2.4-4.8-3-7 1.5-1.1.6-4.8 2.9-3.7z" fill="#e198ef"/><path class="st3" d="M296.4 131.5c1.4 0 2.9-.3 4.2-.1 1.1.9 2 2.1 2 3.6.3 5.3.1 10.7.6 16 .5 1.7.7 3.3.8 5 2.4 10.9 6.7 21.6 10.7 32 4.3 11.9 9.6 23.3 13.2 36 3.8 12.5 6.1 25.8 5.7 39-.7 2 .5 2.9-.9 5l.6 1.4c-.3 5-1.8 9.7-2.5 14.6-1 2.3-1.1 4.5-1.1 7-1.1 2.8-2.4 4.8-3.2 7.8-2.2 2.3-2 5.1-5.2 6.6-1.6 2.4-2.3 6.6-5 8.1-1.3 3.6-5.2 6.5-8 9-3.5 3.8-7.8 6.3-12.4 8.4-6.1 1.5-12.3 1.9-18.6 1.7-3.4 1.1-6.2 3-7.2 6.6-1.4 3.1-.5 6-2.5 8.6-.7 1-.5 2.8-1.7 3.4l-.7.1c-1.1-2.4-3.8-1.4-4.9-3.1.4-5.7.5-11.1 2-16.7 1.5-4.6 4.8-7.5 8.3-10.7.8-.8 1.9-.9 2-2.1l-.3-.2c-3.5 2.1-6.7 4.3-9.1 7.7-1.7 2.6-2.8 5.4-3.6 8.4-.3 2.1-.1 4.2-.9 6.2-11-3-20.8-8.9-26.3-19.2-8.1-14.5-6.5-31.3-3.9-47.1 2.3-12.5 7.3-23.6 11.1-35.6 3.8-10.3 6.5-20.6 8.8-31.4 3.1-13.5 3.2-27.3 3-41.1 4.2-.5 8.5-1.4 12.4-2.8 2 .4 3.3-.9 5.1-.7 3.3-1 6.4-3.8 9.4-5.4.1-.3.1-.7 0-1.1 1.8-1.9 3.2-4.2 4.6-6.4 3-7.4 6.6-14.3 13.5-18.5z"/><path d="M321.1 137.9c.7.2 1.1 1 1.1 2.1.5 3.8 1.1 7.4 2.6 11 .5 2.1 2.7 2.3 3.7 4.4 3.2 1.4 6 .9 8.5-1.4-.6 1.6-1 3.3-1.8 4.9-1.8 2.5-4.4 3.5-7.2 4.3-1.5.5-3-1-3.4-2.3-1.2-3.5-2.4-7-3.2-10.6-.6-1.9-1.5-3.3-1.2-5.4 1.1-1.9.3-4.7.9-7z" fill="#b572de"/><path d="M336 137.9c2.4 2.5 1.5 5.7 1.9 9.1-.2 2.1.4 5.4-.9 7.1-2.5 2.3-5.3 2.8-8.5 1.4-.9-2.1-3.1-2.3-3.7-4.4-1.5-3.7-2.1-7.2-2.6-11 .4-.3.9-.5 1.4-.7.9 4.2 2 9.1 4.1 12.9 1 1.4 2.9 0 3.1-1.3.5-3.8-1.7-6.3-1.9-10l.4-1.7c2.6 0 4.2-1.4 6.7-1.4z" fill="#ec8deb"/><path d="M308.9 210.3c5.4 5.5 5.6 12.5 4.9 19.8-1.3 5.1-2.6 10-5 14.7-1.4-.1-2.1-1.8-3.9-1.6l-.7-.3c-1.6-1.5-.7-3-.4-4.8.6-1.7.9-3.8 2-5.2 2.7-4.6 4.8-9.6 2.6-14.8-.2-2.2-1.5-3.7-2-5.7.6-1 1.4-1.8 2.5-2.1z" fill="#ebebeb"/><path d="M308.9 210.3c2.2-.8 4.6 2.8 5.4 4.5 3.6 8.4 1.6 16.4-.8 24.7-2 3.9-2.4 8.5-4.4 12.5-1.2 2.5-3.1 4.8-6.1 4.5-3.9.4-6.9-4.4-8.1-7.5-1.7-3.6-.1-6.4.4-10 .4-3.5-1.3-6.4-2.9-9.4-1.2-3.5-2.3-6.6-1.1-10.2h.4c.5 2.2.4 4.5 1.4 6.6 1.2 3.7 4.1 7.2 4.2 11 .1 1.7-.1 3.4-.4 5.1-.6 1-.8 5.1.1 5.9.7 2.2 2.9 5.1 5 6.1 3.5 1.1 5.2-3.5 6-6 .4-2.6-2.7-2.2-3.1-4.9 1.8-.2 2.5 1.5 3.9 1.6 2.4-4.7 3.7-9.6 5-14.7.7-7.3.5-14.3-4.9-19.8z" fill="#413a40"/><path d="M244.8 213.3c.2.8.1 1.7-.2 2.7-1.7 6.1-3.4 12.1-5.5 18.1-.5 2.2-1.7 4-4 4.4-1.8-1.2-1.7-2.9-2.8-4.3-1.2-1.1-1.8-2.6-2.3-4.1.4-2.3 2.9-4.1 4.2-6 2.6-3.6 6.9-8.6 10.6-10.8z" fill="#f7f9f7"/><path d="M228.9 231.2c.4 1 .7 2 1.1 2.9-.6.6-1.1 1.5-1.4 2.5-.4-.3-.9-.4-1.4-.5-.3.9-.4 1.8-.2 2.9-1.7-1.8-.4-7.4 1.9-7.8z" fill="#cf85c6"/><path d="M230 234.1c.6.2 1.3.4 1.9.6l.3-.7c1.1 1.4 1.1 3.1 2.8 4.3-1.3 1.8-6.6 2.2-8.2.6-.2-1-.1-2 .2-2.9.6 0 1 .2 1.4.5.5-.9.9-1.7 1.6-2.4z" fill="#d97fd4"/><path d="M296.9 242.1l.2 1c.1 2.3 4.2 0 5.6 1.3.4 1.5-.9 3.4-1.9 4.4-1.5-.9-2.8-.3-3-2.4h-.6l-.2 1.6c-1-.9-.7-4.9-.1-5.9z" fill="#f984f3"/><path d="M297.1 243c2.1-.9 4.9-.2 7.1-.2l.7.3c.4 2.7 3.5 2.3 3.1 4.9-.8 2.5-2.5 7.1-6 6-2.2-.9-4.3-3.8-5-6.1l.2-1.7h.6c.2 2.1 1.5 1.5 3 2.4 1-1 2.3-2.9 1.9-4.4-1.4-1.2-5.6 1.2-5.6-1.2z" fill="#df7ad6"/><path d="M396.1 271.7c2.9 1.2 6.7 2.1 9.1 4.3-.8 2.3 1.3 2.4 2.9 2 1.8.3 3.3 2.2 4.6 3.3 2.2 2.5 4.4 4.3 5.3 7.6-1.2 2.7 1 3.6 1.5 6-.6 1.3-2.4 4.3-3.3 4.9-.2-1.9-1.2-3.6-1.5-5.5-.5.2-1 .8-1.5 1.9-1.9-3.4-3.6-7.2-6.8-9.6-3.8-3.3-8.4-6.6-13.5-7.5l-.7.2c.6 1.1.9 2 .6 2.6-1.5-.1-2.6-1-4-1.4-3.8-1.5-7.8-1.5-11.8-2.2-1.6-.2-3.1-.3-4.7.1 2 1.7 4.9 2.4 6.8 4.5.7.6.6 1.1-.2 1.3-4.5-1.1-9.5-2-14-.2-3.3.9-6.7 2-9.6 3.7-.1-1 1.2-2.6-.4-3 3.9-6.3 11-10.8 17.9-13 7.4-2.5 15.9-2.1 23.3 0z" fill="#7cc1f1"/><path d="M405.2 276c1.1-.3 2.8.8 2.9 2-1.6.4-3.7.3-2.9-2z" fill="#9bbbcc"/><path d="M372.3 278.3c1.6-.4 3.1-.3 4.7-.1 4 .7 8 .6 11.8 2.2 1.4.3 2.5 1.3 4 1.4.3-.6.1-1.5-.6-2.6l.7-.2c5 .9 9.7 4.2 13.5 7.5 3.3 2.4 4.9 6.2 6.8 9.6.7 3.1 1.6 6.4 1.3 9.7-1.5-3.2-4.4-7.6-7.4-9.5-.1 1.5.7 3 .9 4.5-1.7-.1-2.6.3-4.1 1-1.4-.4-2.3-1.5-3.8-1.6-1.8 1.7-1.9 2-4.1.6l-.9.2c-1.8-2.2-3.2-4.9-5.4-6.6-1.8-.9-3.5-1.8-5.1-3-2.2-.1-4-.7-6.1-1.1 0 .4.1.8.2 1.2l-1.8.7c-7.8-2.4-15.6-1.8-23.7-1.6-.8-1.5.5-5 1.7-6 1.5.4.3 2 .4 3 3-1.7 6.3-2.8 9.6-3.7 4.5-1.7 9.5-.9 14 .2.8-.2.8-.7.2-1.3-1.9-2.1-4.8-2.8-6.8-4.5z" fill="#a3d9fd"/><path d="M224.1 286.1l.5.9c-.3 3 .2 6.2-.5 9.1-3.4 2-6.3 4.5-9.7 6.5-1.9-1.4-3.1 1.1-5.1.2-.7-.3-1.4-.5-2.2-.6-.4-1.5-.1-3.8 1.4-4.6 4.2-2.8 7.4-6.6 11.5-9.5 1.2-.8 2.6-2.2 4.1-2z" fill="#fcfdfc"/><path d="M418.1 288.9l.6.4c4.3 7.4 4.4 15.7 3.2 23.9l-1.2-1.2c.6-3.3.1-6.6.5-10-.2-2.5-1.6-4.5-1.6-7.1-.5-2.4-2.7-3.4-1.5-6z" fill="#a0bbe9"/><path d="M378.5 290.4c2.1.4 3.9 1 6.1 1.1 1.6 1.2 3.3 2.1 5.1 3 2.2 1.7 3.6 4.4 5.4 6.6.9 3.8 1 7 .6 10.9-.8 1.2-1.4 5.8-2.7 5.9-.4-1.5 0-3-.5-4.4-1.1 1.9-1.8 5-3.6 6.9-1.5 0-2.5-.5-3.2-1.4.4-2.5 1.9-4.4 2.3-6.9.6-4.3.7-8.6-1.8-12.4-2.2-3.7-5.6-5.6-9.4-7.4l1.8-.7c0-.4-.1-.8-.1-1.2z" fill="#d7e3fb"/><path d="M414.8 294.2c.3 1.9 1.2 3.6 1.5 5.5.9-.6 2.6-3.6 3.3-4.9 0 2.6 1.4 4.6 1.6 7.1-.4 3.3.1 6.6-.5 10-2.2-.1-1.4 2.3-1.9 3.8-1.6.8-2.1-.1-3.5-.5-.4 1.3-1.7 3.3-3.1 3.5-.8-1.9.6-5.8-1.2-7-1-3.1-.8-8.3-3-11-.2-1.5-1-3-.9-4.5 3 1.9 5.9 6.3 7.4 9.5.4-3.2-.6-6.6-1.3-9.7.6-1 1.1-1.6 1.6-1.8z" fill="#8eaceb"/><path d="M224.1 296.1c.6 2.3.3 4.5.5 6.9 0 1.5.9 2.5.3 3.9-3.6.1-6.4 2.2-9.9 2.6-2.3.2-4.6-.1-6.8-.7-2.7-.8-1.7-4.6-1.1-6.6.8.1 1.5.3 2.2.6 2 1 3.2-1.5 5.1-.2 3.4-2 6.3-4.5 9.7-6.5z" fill="#eaeaeb"/><path d="M205.1 300c.9 1.3 0 2.8.8 4.1.8.9.8 1.9.2 2.8-2.2-.1-4.3-1.9-5-3.9-.4-2.3 2-3.6 4-3z" fill="#df7cd8"/><path d="M400.2 300.2c1.5.1 2.4 1.2 3.8 1.6 1.5-.7 2.4-1.2 4.1-1 2.2 2.6 2 7.9 3 11-1.7 1.3-.2 7-2.7 7.1-.6-1.6-.6-6.5-2.4-7-1.1.6-.8 3-1.2 4.1-.8 1.2-.6 3.2-1.7 4.1-.3-1.6-.1-3.2-.4-4.8-1.5-1.7-3-2.3-3-4.9h-.2c-1 1.8-1.4 3.4-1.7 5.4-1.6.2-1.8-2.7-2-3.8.4-3.9.3-7.1-.6-10.9l.9-.2c2.2 1.3 2.3 1 4.1-.7z" fill="#b5c6fa"/><path d="M399.4 310.4h.2c0 2.6 1.5 3.2 3 4.9.3 1.6.1 3.2.4 4.8-.6 3.1-2.8 5.7-3.3 8.8-1.8 2.6-2.7 5.8-4.7 8.3l-.3-3.9c-.8-.3-1.7-.3-2.5 0-.2.8-.3 1.6-.5 2.4-1.2 0-1.6-1.5-2-2.4-2.9-1.2-3.9 1.3-6.7.6-.1-1.5.9-2.8 1.5-4.3 1.2-1.7 1.4-3.7 2.8-5.3.7-1.1 1.9-2.6 1.7-4 1.8-1.9 2.5-4.9 3.6-6.9.5 1.5.1 3 .5 4.4 1.3-.1 1.9-4.7 2.7-5.9.2 1.1.4 4 2 3.8.2-2 .6-3.6 1.6-5.3z" fill="#c6b5f5"/><path d="M406 311.8c1.7.5 1.7 5.4 2.4 7 2.5-.1 1-5.9 2.7-7.1 1.8 1.2.4 5.1 1.2 7 1.4-.2 2.7-2.2 3.1-3.5 1.4.4 1.9 1.3 3.5.5.5-1.5-.3-3.9 1.9-3.8l1.2 1.2c-1.3 4.9-2.8 10.7-5.9 14.7-1.3-.3-2 .3-2.2 1.8-.8.3-1.6.5-2.5.6.3.5.5 1 .7 1.5-2.5.6-2.1-2.2-1.2-3.5-2-.6-1.3 1.2-1.9 2.5-.5.1-.9-.4-1.1-1.5-1-.1-1.6 1.7-2 2.5-2.9.7-5.4.7-5.9-2.9.5-3.1 2.7-5.7 3.3-8.8 1.1-.9.9-2.9 1.7-4.1.2-1.1-.2-3.5 1-4.1z" fill="#999ee8"/><path d="M325.6 319.4c.5 1.1-.6 2-1.3 2.7-.9 1.4-3.8 1.1-5.1.6-1.7-1-1.4-3.5.4-4.1 2.1-1.2 4.2-.6 6 .8z" fill="#fefefe"/><path d="M385.8 318.9c.7.9 1.7 1.3 3.2 1.4.2 1.4-1 2.9-1.7 4-1.4 1.6-1.6 3.6-2.8 5.3-.6 1.5-1.6 2.7-1.5 4.3-1.7 3-2.1 7.6-3.3 11-.9 0-.8-3.6-1.1-4.5-1.2 1.2-1.6 5.2-2.3 6.9-.4 1-.5 1.9-.1 2.7l-.4 1.9c-1.9 0-1.7.8-2.6 2.2-1-5.7.9-12.1 3.5-17.1.7-1.2 1.2-1.7.2-3 .9-3 3.1-5 4.2-7.9 1.8-2.3 2.8-5.1 4.7-7.2z" fill="#e4d4f9"/><path d="M410.7 328.3c-.9 1.3-1.3 4.1 1.2 3.5-.2-.5-.4-1-.7-1.5.9-.1 1.7-.3 2.5-.6.2-1.4.9-2 2.2-1.8-1.1 3.9-4.1 7.4-6.2 10.8-3.2 4.7-6.4 8.5-9.8 13.3-1-.2-1.9-.2-2.7.1-.2 1.1-.9 1.8-2 2-1.6 2.2-1.1 4.6-2.4 6.8-.2.6-.7.9-1.4.7-.7-2 .8-6.9-1.3-7.7.4-5.7 3.7-11.2 4.9-16.8 2-2.4 2.9-5.7 4.7-8.3.5 3.5 3 3.6 5.9 2.9.3-.7.9-2.6 2-2.5.2 1.1.6 1.6 1.1 1.5.7-1.2 0-3 2-2.4z" fill="#a68fe4"/><path d="M389.7 333.3c.4.9.8 2.4 2 2.4.2-.8.4-1.6.5-2.4.8-.3 1.7-.3 2.5 0l.3 3.9c-1.2 5.5-4.5 11-4.9 16.8-1.4 2.3-1.1 4.6-1.5 7.1 0 .9-.4 1.1-1.2.7-.6-4.1-.4-8.2-.8-12.3h-.2c-1.7 3.7-1.7 6.7-1.7 10.7-1.3-2 0-5.6-1.1-7.8-2.4-1.9-3 .1-5.4-.6-.3-1.3-1-1.9-2.1-1.7-.3-.8-.3-1.8.1-2.7.7-1.8 1.1-5.7 2.3-6.9.3.9.1 4.5 1.1 4.5 1.2-3.4 1.6-8 3.3-11 2.9.6 3.9-2 6.8-.7z" fill="#d6a3f1"/><path d="M377 333.9c1 1.3.5 1.8-.2 3-2.6 5-4.5 11.5-3.5 17.1-1.2 5 .1 9.3 1.9 13.9l.2 2.2c-.3.6-.5 1.3-.8 1.9-2.9-4.6-3.7-10.6-4.2-16.1-.2-7.5 2.6-15.6 6.6-22z" fill="#dca0e6"/><path d="M299.7 344.2c.6 1.3.2 2.8 1 4-.6 10.2-.2 20.6-.2 30.9.1 1.6-.3 3.5.5 5-.7 2.4 0 4.6-.1 7 .8 17.6 3.4 34 8.8 50.9-2.2 1.8.4 3.1.1 5.1-.1 2.1 1.4 3.1 1.8 5.1.1 2.7 1.5 4.4 2.6 6.8.5-.1.9-.2 1.4-.4.4.4.7.8.9 1.2-1.8.5-1.6 2-2.9 3-.6-.2-1.2-.7-1.5-1.7.3-.7.6-1.3 1-2-.8-1-.9-3.9-2.9-2.8.5 1 .6 1.8.5 2.4-1.1.3-1.8.9-2.1 2-1.4.6-2.4-.1-3.6-.8-.7.2-1.1.7-1.4 1.7-1.1-1-2.4-4.9-2.8-6.4l-.8-.3c-.4-.9-.5-1.9-.5-2.9-.1-6.5.1-13-.1-19.5l-.4-.5c-1.1-8.8-.5-18.2-.8-27-.2-4.2.5-8.8-.2-12.9.9-14.6.3-29.4.4-44.1-.4-1.5 1.7-2.9-.5-3.4.6-.2 1.2-.4 1.8-.4z" fill="#f295b2"/><path d="M295.2 345.2c.9-.3 1.8-.5 2.7-.6 2.2.6 0 1.9.5 3.4-.1 14.7.4 29.5-.4 44.1h-.9c-.5-2.2-.4-4.4-.5-6.6h-.1c-.1 1.2-.3 2.4-.6 3.6l-1 .1c-.4-.9-.5-1.9-.4-3 .8-11.3.4-22.7.5-34 .1-2.3-.7-5 .2-7z" fill="#f5b9e7"/><path d="M301.8 346.9c.5 7.3.1 14.8.2 22.1-.2 5 .5 10 0 14.9h-1c-.8-1.4-.4-3.4-.5-5 .1-10.2-.4-20.7.2-30.9l1.1-1.1z" fill="#112722"/><path d="M386.4 349.4h.2c.4 4.1.2 8.3.8 12.3.8.4 1.2.2 1.2-.7.4-2.5.1-4.8 1.5-7.1 2.1.8.6 5.8 1.3 7.7.7.2 1.2 0 1.4-.7 1.2-2.2.7-4.6 2.4-6.8 1.1-.2 1.8-.9 2-2 .8-.3 1.8-.3 2.7-.1-.8 2.4-2.5 4.1-3.3 6.5-2.6 4.2-2.9 8.6-3.5 13.4.8 3.1.3 6 1.8 9 .9 2.2 1.5 4.5 2.1 6.8-3.2 0-2.7-2.5-4.5-4.3-1.8-3.9-4.4-7.2-5.6-11.5-1.1-1.8-.7-4.7-1.9-6.1-.3-1.9.1-3.9-.4-5.8.1-3.9.1-7 1.8-10.6z" fill="#bb79df"/><path d="M376.2 350c1.1-.2 1.8.4 2.1 1.7 2.4.7 3-1.3 5.4.6 1.1 2.2-.2 5.9 1.1 7.8.4 1.9.1 3.9.4 5.8-.7-.2-1.4-.5-2.1-.9-1.6 1.1-2.2.5-3.7-.3-.6-2-1.4-1.7-3.2-1.7-1.1-3.3-.3-7.6-.3-11.1l.3-1.9z" fill="#e594ed"/><path d="M262.2 350.8c-.5 1.8-1.6 3.4-2.5 5.1-.5.1-1-.2-1.5-.8 1.2-1.5 1.3-5.9 4-4.3z" fill="#e9a7e6"/><path d="M262.2 350.8c1.4-.4 2.1 1.3 3.1.3l.7-.1c1.3 2.2 3.6 4 2.2 6.7-2.5 1.5-6.5 3.1-9.3 1.5-1.8-1.6-1.9-2.3-.6-4.2.4.6.9.9 1.5.8.8-1.6 1.9-3.2 2.4-5z" fill="#e280dd"/><path d="M375.8 351.9c.1 3.5-.8 7.8.3 11.1-1 2.3.5 5.2-.9 7.2l-.2-2.2c-1.8-4.6-3.1-8.9-1.9-13.9 1-1.4.7-2.2 2.7-2.2z" fill="#fac6fb"/><path d="M376.1 363c1.9 0 2.6-.3 3.2 1.7 1.5.8 2.1 1.5 3.7.3.7.4 1.4.7 2.1.9 1.2 1.4.8 4.4 1.9 6.1 1.2 4.2 3.8 7.5 5.6 11.5 1.8 1.9 1.3 4.3 4.5 4.3.8 1.1 2.2 3.7 1.9 5-6.7-1.2-13.3-5.9-17.8-10.9-3-2.5-5.1-6.3-6.7-9.8.3-.6.6-1.3.8-1.9 1.3-2-.2-4.9.8-7.2z" fill="#f187eb"/><path d="M296.5 385.4h.1c.1 2.2 0 4.4.5 6.6-.5 17.6.2 35.3-.3 52.9h-.8c-.5-9.5-.1-19.4-.4-29 .6-6.3.1-12.7.5-19-.1-2.6.4-5.5-.2-8 .3-1.1.5-2.3.6-3.5z" fill="#c6b1b6"/><path d="M294.9 389l1-.1c.7 2.5.1 5.4.2 8-.3 6.3.1 12.7-.5 19-.6 5.5 0 11.4-.4 17-.4 4.9.1 9.9-.4 14.8l-.9.3c-.8-2.5-.2-5.5-.4-8.1-.2-3.6.8-6.6-1.1-9.6h-.3c-.2 2.7.2 4.7-2 6.7-.3-2.2.9-4 .9-6.1-.2-3.6 1.3-8.2.7-11.8l-.6-.3c1-6.1 1.6-11.7 2.4-17.8.4-4 .3-8 1.4-12z" fill="#f29ff3"/><path d="M297.1 392.1h.9c.8 4.1.1 8.7.2 12.9.3 8.9-.3 18.3.8 27 .2 3.6 0 7.3.1 11 0 4.3.4 9-.6 13.2-.9 5.4.1 10.8-.4 15.9-1.7-1.7-.6-5.9-1-8.2-.1-6.3.3-12.7-.1-19 .3-17.5-.5-35.2.1-52.8z" fill="#e6d0c7"/><path d="M295.7 416c.3 9.5-.2 19.5.4 29-1.2 6.6.3 12.7.4 19.2 0 5.3.2 10.6-.4 15.8-2 3.3-1.3 6.7-3.2 9.8-1.3 5-4 10.4-7.7 13.9-.6-.4-1.3-.7-1.9-.9v-.7c3.3-3.6 5.7-8.2 7.1-12.8.7-1.1 1.6-1.8 1.5-3.3-.2-2.1 1.4-3.9 1-5.9-1-.2-1 2.1-2.1 2.6-.9 1.3-.4 2.9-1.9 4.1-2.4 5.4-6.2 10.4-10.8 14.3-4.5 2.9-8.9 4.3-14.1 5.7-1.3.1-1.7 1.8-2.8 2-.9-3.6-3.3-1.6-4.9-4.4 0 .9-.2 1.7-.5 2.5-.6-.1-1.1-.2-1.6-.5 0 .9-.1 1.8-.3 2.6-1.6.4-2.4-3.2-4.1-.9-1.5 0-2.5-1.4-3.4-2.3-1.1-1.4-2.7-1.8-4.1-2.9-1.5-1.1-2-.7-2.4 1-1.3.5-3.1.5-4.3-.2v-1.3c-1.6-1.1-4.6-.1-6.4.1-1.9 1.9-4.3 1.1-6.2 2.8-2.6.9-5.6 1.8-8.3 2.3-5.8-.5-12.8-4-15.3-9.5.9-3.8-1.5-7.1.3-11.1 3.1-6.9 9.8-8.5 16.4-10.6 6-1 11.9-.6 17.9-.5 2.4.5 5.1.1 7 1.5 1.7.9 3.8.9 5.6 1.3 3 2.5 6.5 4.7 10.4 5.5 0 1.5-1.4 1.9-.5 3.5 2.7.6 2.5-1.1 4.6-1.8 3.3.5 6.7.2 10 .2 1.7-.2 3.6.3 4.1-1.9 1.6.1 3 .1 4.4-.6.5-.9 1.3-1.6 2.4-1.9 3.5.2 2.9-3.3 5.5-4.2.6-4 3.7-6.1 4.9-9.9 1.8-6.1 2.5-13.1 1.6-19.4l.9-.3c.5-4.9 0-9.9.4-14.8.4-5.7-.3-11.6.4-17.1z" fill="#8675ea"/><path d="M291.2 418.9l.6.3c.7 3.6-.8 8.2-.7 11.8 0 2.1-1.3 3.9-.9 6.1-2.2 9.3-6.5 18.9-14.8 24.2-.7.6-3.1 2.4-3.6.8 2.2-1.7 3.8-4.5 5.6-6.6 5.1-6.2 7.3-13.2 10.1-20.6.5-2 .7-4 1.5-5.9 1.1-3.3.9-7 2.2-10.1z" fill="#fdbbf7"/><path d="M292.2 430.4h.3c1.9 3 .9 6 1.1 9.6.2 2.6-.4 5.6.4 8.1.9 6.3.1 13.3-1.6 19.4-1.2 3.8-4.3 5.9-4.9 9.9-2.6.9-2.1 4.4-5.5 4.2-.9-2.1 1.6-1.3 1.8-2.7.6-1.6 2.2-2.7 2.6-4.4.5-3.1 3.6-6.9 3.1-10.2h-1.2c-.2 3.2-2.6 5.4-4.2 7.9-3.7 4-9 6-14.2 6.5-2.7.2-5.3 1.2-6.2 4h-.7c-.3-1-.8-1.8-1.4-2.5-1.4.3-3.9.8-4.5 2.3 2.6.4 5 1.2 7.7 1.4 3.8 2.2 6.4 0 10.1.1-.5 2.2-2.4 1.6-4.1 1.9-3.4 0-6.7.3-10-.2-2.1.6-1.9 2.3-4.6 1.8-.8-1.6.5-2 .5-3.5-3.9-.8-7.3-3.1-10.4-5.5-1.8-.3-3.9-.4-5.6-1.3-1.9-1.4-4.6-1-7-1.5-.2-1-.8-1.6-1.7-1.8-1.4-8.4 5.7-16.7 13.9-17.8-.9 1.8-2.2 1.2-3.6 2.1-.4 1.7-1.9 2.1-2.8 3.4-2.2 2.4-4 5.7-4.3 9 2.2-1.7 3.8-4.5 6.2-6 6-4.4 14.1-5.3 21.3-4.3 2.4.4 3.5 2.3 6 1.8.9.8 1.9.4 2.9-.1.5 1.7 2.9-.1 3.6-.8 8.3-5.4 12.5-15 14.8-24.2 2.4-2 2-3.9 2.2-6.6z" fill="#f184e9"/><path d="M299 432l.5.5c.2 6.5 0 13 .1 19.5 0 1 .1 2 .5 2.9-.2 2.8.6 5.3.6 8.1 1.4 1.7 1.2 3.6 1.8 5.5 1.6 1.8 2.2 4.3 3.9 6.1 1.9 1.7 4 3.2 5.8 5 1.3.5 2.5.6 3.4 1.7 1.5 1.5 3.7.2 5.4 1.9 2 1.2 7.9 1.2 9.1-1.1 1.8.4 3.9-.1 5.6-.6 1.6-1.7 3.9-1.4 5.6-3.1 2.8-.8 4.8-2.7 7.5-3.6 1.5.5 3.2.2 4.4-.9l.8-.2c6.2.1 11.8-.9 17.9.6 4.6 1.8 10.1 3.7 13.3 7.7-.6 2.3-2.9.4-4.2 0-1.3-.6-2.8.7-3 1.9.8 2.6 2.7 2.9.5 5.6-2.1.3-3.7.1-4.6 2.4-1.1 2.3-1.3 4.5-4.6 3.6-2.7-3.2-6.2-.5-9.6-2.3-1.7-.9-3.2-.2-4.7.6-2.8.5-3.8-1.9-6.8-.8.1 1.8 2.3 1.7 3.5 2 .8 1.3-1.2 3.3-2.5 2.5.2-.5.3-1.1.5-1.6-2-.9-5.6 1.1-6.1-1.9-1.2-.2-2.3-.4-3.4-.6-.3-2.5-3-1.9-4.6-1.1-1.3 0-2-1.1-3.4-.4-1 .9-1.7 1.6-3 2 .2.5.3 1 .5 1.5-.7.3-1.4.1-2-.5-1-1.3-2.1-1-3.4-1.6-1.2-.7-2.7-1-4-.3-2.3 1.4-5.6.1-8 .9-.5 2.4-2.5.9-2.5 3.7-1-1.5-2.5-2.2-3-4-.7-1.9-1.1-3.6-2.4-5.2-.8-4.1-2.7-7.6-3-11.8 0-2.5-1-4.6-1.7-6.9h-.6c-1 3.9.8 7.1.8 10.9-.2 3.9 2.1 7 2.5 10.9 1.4 1.9 1.7 4 2.5 6.2-.8-.1-1.6-.1-2.4 0-.7-2.6-2.2-4.3-2.3-7-.1-2.3-.8-4.3-1.5-6.4-1-4 0-8.5-.6-12.5.5-5.2-.5-10.5.4-15.9 1.1-4.2.6-8.9.6-13.2-.1-3.3.1-7-.1-10.7z" fill="#ead27b"/><path d="M271 436c3.4 0 5.4 1.8 6 5-.6 6.1-10.2 6.8-12.8 2-.4-1.5-.2-3 .3-4.4 2.1-1.7 3.7-3 6.5-2.6z" fill="#2a3147"/><path d="M274.5 439.5c.6 1.5.4 3.1-1 4-2.4.8-5.1.9-7.1-1-.3-1.4-.3-2.2.8-3.2 2.4-2.1 5-1.2 7.3.2z" fill="#f286ee"/><path d="M331 443c.3 3.3-3.8 4.8-6.3 3.4-2.5-.6-2.5-5.1-.1-5.8 2.3-1.3 5.8-.5 6.4 2.4z" fill="#222f48"/><path d="M255.4 441.5c2-.9 5.6 0 5.8 2.5.7 4.1-5.7 5.5-7.6 2.4-1.3-1.4.2-4.5 1.8-4.9z" fill="#232e46"/><path d="M309.8 441.9c1.4 3.7 3.9 7.5 5.5 11.1 2.7 2.7 4.1 6.2 7.2 8.5 1.4.9 1.5 1.9 1.6 3.5l.9.3c3.3-2.1 6.2-4.4 9.9-5.6 4.7-2 10.7-2.4 15.3.3-.3.6-1 1-2 1.2-1.2 1.8 1.1 4.2 1.7 5.7-.4 1.5-1 2.8-2.6 3.3-6.4 3-12.6 7.8-19.3 9.2-.9.2-4.3-.4-3.9 1.2 1.5.2 3 1.6 4.4.8.7-.4 1.3-.1 1.6.6-1.2 2.3-7.1 2.4-9.1 1.1-1.7-1.7-3.9-.4-5.4-1.9-.9-1.1-2.1-1.2-3.4-1.7-1.7-1.8-3.9-3.4-5.8-5-1.7-1.8-2.2-4.2-3.9-6.1-.7-2-.4-3.8-1.8-5.5 0-2.8-.9-5.3-.6-8.1l.8.3c.4 1.5 1.7 5.4 2.8 6.4.2-1 .7-1.6 1.4-1.7 1.2.6 2.2 1.3 3.6.8.3-1.1 1-1.8 2.1-2 .1-.6 0-1.5-.5-2.4 2-1.1 2.1 1.8 2.9 2.8-.3.7-.6 1.3-1 2 .4 1 .9 1.5 1.5 1.7 1.2-1.1 1.1-2.5 2.9-3-.2-.4-.5-.9-.9-1.2-.5.2-.9.3-1.4.4-1.1-2.3-2.5-4.1-2.6-6.8-.4-2-1.9-3-1.8-5.1.3-2-2.3-3.4-.1-5.1z" fill="#ef83a5"/><path d="M325.3 442.3c1.4-.6 4-.6 3.5 1.6-.8 2-5.4 1.1-3.5-1.6z" fill="#b17077"/><path d="M256.2 443.3c1.5-.4 2.4-.1 2.7.7.6 2.1-1.4 2.2-2.9 1.8-1.4-.5-.9-2 .2-2.5z" fill="#bc7aad"/><path d="M296 445h.8c.4 6.3 0 12.7.1 19l-.5.3c0-6.7-1.6-12.8-.4-19.3z" fill="#a590bb"/><path d="M268.1 455.7c1.1.6 4.8.4 4.6 2.2-.9 1.5-2.7 2.6-3.7 4.2-2.5.5-3.6-1.4-6-1.8-7.2-1-15.4-.1-21.3 4.3-2.4 1.5-4.1 4.2-6.2 6 .2-3.3 2.1-6.6 4.3-9 1-1.3 2.4-1.7 2.8-3.4 1.4-.9 2.7-.3 3.6-2.1 6.4-2.6 15.1-1.6 21.9-.4z" fill="#f7bbf3"/><path d="M350.2 460.1c4.5 1.4 7.6 4.9 9.5 9.2.4.7.4 1.5-.2 2.2-2.1.5-3.7 1.4-5.5 2.2l-.8.2c0-1.7-4.4.1-4.4.9-2.8.9-4.8 2.8-7.5 3.6-1.7 1.7-4 1.4-5.6 3.1-1.7.5-3.8 1-5.6.6-.3-.7-.9-.9-1.6-.6-1.4.8-2.8-.6-4.4-.8-.5-1.6 3-.9 3.9-1.2 6.7-1.5 12.9-6.2 19.3-9.2 1.6-.5 2.2-1.8 2.6-3.3-.6-1.6-2.8-3.9-1.7-5.7 1-.2 1.7-.6 2-1.2z" fill="#e97093"/><path d="M288.4 464.4h1.2c.4 3.3-2.6 7.1-3.1 10.2-.4 1.7-2.1 2.9-2.6 4.4-.2 1.4-2.8.6-1.8 2.7-1.1.3-1.9.9-2.4 1.9-1.4.7-2.9.7-4.4.6-3.7-.1-6.4 2.2-10.1-.1-2.7-.2-5.1-1-7.7-1.4.6-1.5 3.1-2 4.5-2.3.7.6 1.1 1.4 1.4 2.5h.7c.9-2.8 3.5-3.8 6.2-4 5.3-.5 10.6-2.5 14.2-6.5 1.3-2.7 3.7-4.9 3.9-8z" fill="#eb6ae0"/><path d="M296.4 464.2l.5-.3c.4 2.3-.7 6.6 1 8.2.6 4-.4 8.5.6 12.5.8 2.1 1.4 4.1 1.5 6.4.1 2.7 1.6 4.4 2.3 7-.2 2.4 1.7 1.2 1.6 3.9-2.2.3-2.3 1-1.6 3 .4.5.3 1-.3 1.2-1-.6-.9-2.6-1.4-3.7-.5.1-1 .4-1.5.8-.5 1.4 1.1 1.7.1 3.1-.2.9-.3 1.8-.3 2.7-2.1.2.4-3.8-2.4-2.9-.5-8.7.4-17.5-.5-26.1.6-5.3.4-10.5.4-15.8z" fill="#7ce1b5"/><path d="M299.1 470.1h.6c.7 2.3 1.7 4.4 1.7 6.9.3 4.3 2.2 7.7 3 11.8 1.4 1.6 1.8 3.3 2.4 5.2.6 1.8 2 2.5 3 4 .4 2 2.3 2.4 2.9 4.4 2 1.7 4.9 4.1 6.9 6.1.8 1.1 2.4.3 2.1 2.1-4-.3-5.8-2.6-9.2-4.2-1-1.9-2.8-2.3-3.9-3.9-1.6-1.3-2.3-3-3.7-4.5-.8-2.1-1.1-4.2-2.5-6.2-.4-3.9-2.7-6.9-2.5-10.9 0-3.7-1.8-6.9-.8-10.8z" fill="#f2e8ac"/><path d="M165.4 473.6c1.2 1.3.4 2.5.1 3.9-1.8.1-3.8.5-4.7-1.5-.6-2.8 2.7-3.9 4.6-2.4z" fill="#2a5b79"/><path d="M187.8 475.2c2 1.9 1.3 4.4-.4 6.3-3.5.5-6.9.8-10.4.4-2.6-.7-3.7-3.7-2.2-5.9 2.8-4.2 9.6-3.8 13-.8z" fill="#08273b"/><path d="M353.2 474c-1.2 1-2.9 1.4-4.4.9 0-.9 4.4-2.7 4.4-.9z" fill="#9d5d50"/><path d="M163.3 474.3c.8 0 .9.5.6 1.6-1.9.6-2.2-.8-.6-1.6z" fill="#6c91a0"/><path d="M186.7 477.2c.9 2.4-2.3 2.1-3.8 2.6-1.6.4-6.8.9-6.6-1.7 1.1-4.3 8.2-4 10.4-.9z" fill="#88cbed"/><path d="M359 474.8c1.7.1 4.1.8 5.1 2.2-.3.9-.8 1.8-1.6 2.5-3.3.5-6.8.5-10.2.9-5.3 3.2-12.2 4.1-17.7 7.1-1.8.4-3.6.2-5.4 0 1.2-2 4.6-1.3 6.4-2.8 4.6-1.7 7.9-3.8 12.3-5.7 1.5-1.4 3.5-.9 4.7-2.4 2.1-1.2 4.5-.6 6.4-1.8z" fill="#f6e9b1"/><path d="M365.2 476.4c1.6-.7 4.8-1.5 5.5.8 1 2-1.6 3.4-3.1 2.1-.8-.4-3-1.8-2.4-2.9z" fill="#f2e4a5"/><path d="M239.1 479.6c1.9.7 4.9 1.9 5.5 4-.9 0-1.8-.2-2.7-.6-6.6-2.8-13.6-2.9-20.6-1.6-5.3 1.2-10.7 3.3-14.3 7.6-2.3 2.4-2.9 5.6-3.4 8.8-1.9-1.8-2.1-6.9-1.3-9.5 2-5.2 6.9-7.6 11.9-9 8-2.5 17-2.2 24.9.3z" fill="#beb2f3"/><path d="M292.8 480.1c.4 2-1.2 3.8-1 5.9.1 1.5-.8 2.1-1.5 3.3-1.5 4.6-3.9 9.3-7.1 12.8v.7c.7.2 1.3.5 1.9.9-3.8 3.7-7.5 7.1-12.8 8.7-4.1 2.7-10.4 1.7-15 1-2.4-1.8-5.9-3-7.6-5.5 1.7-2.3 2.5 1.3 4.1.9.2-.8.3-1.7.3-2.6.5.2 1 .4 1.6.5.3-.8.5-1.6.5-2.5 1.6 2.8 4 .7 4.9 4.4 1.1-.2 1.5-1.9 2.8-2 5.1-1.3 9.6-2.7 14.1-5.7 4.6-3.9 8.3-8.9 10.8-14.3 1.5-1.2 1-2.8 1.9-4.1 1.2-.3 1.2-2.6 2.1-2.4z" fill="#7160e5"/><path d="M296 480c.9 8.6 0 17.4.5 26.1.2 7-1.7 13.8-8.4 17.1-2.7.9-5.3 2.5-8.1 2.6-5.6.5-11.4.4-17 0-4.9-.5-9-2.4-13.3-4.5-3.6-1.9-6.4-5.3-9.7-7.3-.9-1.1-2.1-.5-2.7-2.2-.9-2.4-3.7-3.8-6-4.4-.8 2.2 2.8 3.5 1.5 6.4-5.8 1.9-11.5 2.2-17.6 1.8-1.4-.2-2.6.4-3.9.8 0 .4.3.8 1 1.2 4.1.5 7.3-.3 10.8 2.1-5.5-.7-10.5-.5-16.1-.2-2.2-.2-3.8 1.2-6 1-9.6-.1-18.1 1.1-26.9-3.7-.5-1.4-.2-2.5-1.9-2.9l-.1-.9c.9-1.2.3-3.6-.1-5-.7-4.6 2.2-8.8 6.4-10.6 3.6-2.3 7.4-2.5 11.6-2.2 1.8.5 3.3 1.3 5.2.9.6-1 1.2-1.8 1.9-2.3 1.5 1.2.9 3 2.2 4.2 2.5 5.5 9.5 9 15.3 9.5 2.8-.5 5.7-1.4 8.3-2.3 1.9-1.7 4.3-1 6.2-2.8 1.8-.2 4.8-1.2 6.4-.1-.1.5-.1.9 0 1.3 1.3.7 3 .7 4.3.2.4-1.7.9-2.1 2.4-1 1.4 1 3 1.4 4.1 2.9 1 .9 2 2.4 3.4 2.3 1.7 2.6 5.2 3.8 7.6 5.5 4.6.7 10.9 1.7 15-1 5.2-1.6 8.9-5 12.8-8.7 3.6-3.5 6.4-8.9 7.7-13.9 1.8-3.2 1.1-6.6 3.2-9.9z" fill="#6fbae2"/><path d="M381 482c1.3.4 3.7 2.3 4.2 0 2.5 2 5.1 5.5 5.5 8.8-2 .6-3.7 1.5-5.8 1.3-1.4 0-3.1 1.4-2.8 2.8l.1.9 1.6.1c-.1 1.9.3 3.9-.2 5.8-6.4 1.1-13.2.3-19.7 0-1.4 0-4.1-.7-4.3 1.3-.5.9-1.5 1.1-2.3 1.6-.6-.7-1.1-1.5-1.4-2.5-1-.5-2.3-.4-3.7.2-.4 1-.5 2.1-.6 3.3-1.1.2-6.4 0-4.6 2.2-1.3.9-2.5 1.8-4 2.5-.6 2.7-3.8.6-4.7 3.2-6 1.1-12.3 1.1-18.3.2-.3-2.2-3.3-1.2-4.9-2.1-.5-1.6-1.7-1.4-3.1-2-.5-1.1-2.8-3.3-4-3.8-.2-1-.9-1.7-2-2.1-.2-1-1-1.7-2.1-1.9.1-2.6-1.9-1.4-1.6-3.9h2.4c1.4 1.5 2.1 3.2 3.7 4.5 1.1 1.7 2.9 2 3.9 3.9 3.4 1.5 5.2 3.9 9.2 4.2.3-1.8-1.3-1-2.1-2.1-1.9-1.9-4.9-4.3-6.9-6.1-.6-2-2.5-2.4-2.9-4.4-.1-2.8 1.9-1.3 2.5-3.7 2.4-.8 5.8.4 8-.9 1.3-.7 2.8-.4 4 .3 1.4.6 2.5.3 3.4 1.6.6.7 1.3.9 2 .5-.2-.5-.3-1-.5-1.5 1.3-.4 2.1-1.1 3-2 1.4-.7 2.1.4 3.4.4 1.6-.8 4.3-1.4 4.6 1.1 1.1.2 2.3.4 3.4.6.4 3 4.1 1 6.1 1.9-.2.5-.4 1.1-.5 1.6 1.3.7 3.4-1.3 2.5-2.5-1.3-.3-3.5-.3-3.5-2 2.9-1.1 4 1.3 6.8.8 1.5-.8 3-1.5 4.7-.6 3.3 1.8 6.9-1 9.6 2.3 3.2.9 3.5-1.3 4.6-3.6.9-2.3 2.5-2.1 4.6-2.4 2.2-2.6.3-3-.5-5.6.4-1.5 1.9-2.7 3.2-2.2z" fill="#e6cd71"/><path d="M314.2 484.1c1.2-1.2 5.1-.3 4.8 1.7-1.2.6-5.6.6-4.8-1.7z" fill="#e28d85"/><path d="M321.2 485.3c1.3-.9 3.8-.4 2.6 1.5-.9.7-3-.3-2.6-1.5z" fill="#d5a86f"/><path d="M414.3 485.4c2.7-1.2 6-.8 8.3 1.1 1 2.2.2 3.5-2 4-2.5 0-6 .7-8.1-1-.7-2.2.8-2.6 1.8-4.1z" fill="#1f4958"/><path d="M180.1 486.3c2.8-.7 6-.3 8.9-.4 1.4.1 3.1-.3 4.1 1-3.2.7-6.9-.3-10.2.3-.9-.1-1.9-.2-2.8-.3v-.6z" fill="#66a4c2"/><path d="M157.2 487.3c2.4-1.1 5.7-.9 7.8.7 1.2.8 1.4 2.6.7 3.8-1.4 1.4-3.9 1.5-5.8 1.5-1.3-.1-3.4 0-4.2-1.2-1.3-1.8-.2-3.8 1.5-4.8z" fill="#153448"/><path d="M416 487c1.6-.1 3.1-.1 4.6.4-1 1.9-3.5 1.3-5.3 1.3-.4-1.1-.2-1.7.7-1.7z" fill="#859d8e"/><path d="M159.5 488.6c1.1-.4 4.9.3 4.2 2.1-1.6.8-5.1 1.7-6.2-.1-.4-1.5 1-1.6 2-2z" fill="#99c4dd"/><path d="M262.1 488.2c1.3-.4 4.9-1 5.3.8-.8 2.2-6.9 2.6-5.3-.8z" fill="#cc7aed"/><path d="M187 488.9c3.4-.4 6.3 1.1 9.7 1.4.3 1.1.4 2.2.4 3.5-.7.5-1.3 1.3-1.9 2.3.4-1.6-.8-4.5-2.2-5.3-4.8.9-8.6-1-13.5.7-1.8.2-2.9 1.4-4.7 1.2 2.3-3.4 8.4-3.8 12.2-3.8z" fill="#86b7ce"/><path d="M193 490.7c1.4.8 2.6 3.7 2.2 5.3-1.9.4-3.4-.3-5.2-.9-4.1-.3-8-.1-11.6 2.2-4.2 1.8-7 6-6.4 10.6.5 1.4 1.1 3.8.1 5-1.5-2.4-2.2-5.3-3.1-8-.8-3 .8-5.1.9-8 .5-.5.8-1.2 1-1.9 1-1.6 2.7-1.2 3.8-2.4 1.8.2 3-1 4.7-1.2 4.9-1.7 8.8.2 13.6-.7z" fill="#aedef3"/><path d="M293.1 491.2h.6c.3 1.8.5 3.5-.2 5.2-.6 5.5-3.1 11.1-7.3 14.8-5.2 5.4-12.6 6.6-19.8 5.5 1.6-1.4 5.6-1.4 7.7-2.4 5.2-1.5 9.6-6 13.2-9.9 2.2-4.1 5.1-8.6 5.8-13.2z" fill="#aadcf2"/><path d="M393 493c6.9.4 15.1 1.4 21 5.1-.4.7-1.1 1.1-2.1 1-2.8-1.3-5.6-1-8.6-1.6-4.9-1.2-9.7.1-14.5-2.3-2.2.9-2.7.3-5 .7l-1.6-.1-.1-.9c3.1-3.3 7-1.7 10.9-1.9z" fill="#abf3d1"/><path d="M439.5 496.5c1 2.1-.2 4.1-2.3 4.8-3.7 0-7.3.3-11-.2-1.4-2-1.5-3.8.4-5.4 3.5-2.9 9.6-1.9 12.9.8z" fill="#1e3640"/><path d="M388.9 495.2c4.8 2.4 9.6 1.1 14.5 2.3 2.9.6 5.8.3 8.6 1.6.9 0 1.6-.3 2.1-1 2.3.4 6.7 3.5 7.1 5.9-.9.2-1.7.4-2.6.4-.4 2.1.6 4.2-1.9 5.1-1.5 2.3-4.1 2.4-6.5 2.7-7.7.4-14.4-.1-21.8-1.4-2.8-2-7.9-.9-11.2-.9-3.5-.4-7.5-.4-11-.1-1.6 1.1-6.2 1.9-4.6 4.7.6 1.9 1.5 2.7 3.6 2.9 2.7 0 5 .5 7.4-.8 10-1.9 19.8-1.6 29.7.2 1.6 1.1 4.8-.1 5.9 1.4-6.2.9-12.8-.5-19-.6-1.3-.1-2.8.2-4-.3 2.2-.3 4.7.2 6.7-.5v-.6c-4 .1-8.8-.9-12.6.3v.5l1.7.3c-2.5.9-6.2.5-8.9 1.1-4-.3-8-.2-12 .1-1.3-.4-2.6-1.1-3.9-1.5-1.2-.7-2.8-.7-1.8-2.6 1-2.1 2.9-4.4 2.3-6.8-1.9 2.8-3.5 5.4-5.7 7.8-1 .1-6-1.9-2.2-2.5-.1-.5-.3-.9-.4-1.4.9-.4 1.8-.9 2.7-1.3.5.3 1 .5 1.6.7.8-1 2.4-5.1.7-5.4-.3 1.4-.1 2.6-1.6 3.5-1.4.9-3.2-.7-4.7-1-1.8-2.2 3.6-2 4.6-2.2 0-1.1.2-2.2.6-3.3 1.4-.6 2.7-.6 3.7-.2.3 1 .8 1.8 1.4 2.5.8-.5 1.8-.6 2.3-1.6.2-2 2.9-1.3 4.3-1.3 6.5.3 13.3 1.1 19.7 0 .5-1.8 0-3.9.2-5.8 2.2-.6 2.8 0 5-.9z" fill="#72e2a8"/><path d="M429.4 496.4c1.9-.6 4-.6 5.9.2 1.5.5 2.9 1.4 1.3 2.9-.8.1-1.7.2-2.5.2-1.9 0-5.3.7-6.6-1.1-.4-1.5.9-1.6 1.9-2.2z" fill="#8de5bc"/><path d="M169.9 497c-.2 2.9-1.7 5-.9 8 .9 2.6 1.6 5.6 3.1 8l.1.9c1.7.4 1.4 1.5 1.9 2.9-5.3-3.1-8.3-9.6-6.8-15.7.8-1.6.7-3.5 2.6-4.1z" fill="#77a9c2"/><path d="M426.2 501c3.8.5 7.3.2 11 .2-1.6 1-4.3.4-6.2.6-1.3 0-4.1.4-4.8-.8z" fill="#495972"/><path d="M300.6 502.4c.4 1.1.4 3.1 1.4 3.7.7 4 3.6 8.8 6.6 11.3.8.4 1.2.9 1.2 1.5-1.9.9-5.1-.7-6.3-2.3-2.9-2.2-4.1-3.4-4-7.2l-.7-.3c0-.9.2-1.8.3-2.7 1.1-1.5-.5-1.7-.1-3.1.6-.5 1.1-.8 1.6-.9z" fill="#a3f2cb"/><path d="M304 501.9c1.2.3 1.9.9 2.1 1.9 1.1.4 1.8 1.1 2 2.1 1.2.4 3.5 2.6 4 3.8 1.4.6 2.6.4 3.1 2 1.6.8 4.6-.1 4.9 2.1 6 .9 12.3.8 18.3-.2.9-2.6 4-.5 4.7-3.2 1.4-.7 2.7-1.6 4-2.5 1.5.3 3.2 1.9 4.7 1 1.4-.8 1.3-2 1.6-3.5 1.7.3.1 4.4-.7 5.4-.5-.2-1.1-.4-1.6-.7-.9.5-1.8.9-2.7 1.3.1.5.2.9.4 1.4-3.8.5 1.3 2.6 2.2 2.5-3.7 5.1-9 7.4-14.9 8.8-7.1 1.8-14.8 2.5-22.1 1.3-4.2-1.4-9.7-3.1-12.6-6.6-2.3-2.7-2.7-6.2-2.5-9.7l.7.3c-.1 3.8 1.1 5.1 4 7.2 1.1 1.6 4.4 3.2 6.3 2.3 0-.5-.4-1-1.2-1.5-3.1-2.6-6-7.4-6.6-11.3.6-.3.7-.7.3-1.2-.8-2.1-.7-2.8 1.6-3z" fill="#6ae0a3"/><path d="M297 503.2h.8l.5.8-.3.8c-1.1.1-1.4-.4-1-1.6z" fill="#3a8971"/><path d="M230.2 504.2c1-.9 4.2 0 1.8 1-1.4.1-2-.2-1.8-1z" fill="#6283cf"/><path d="M418.5 504.5c.9 0 1.8-.2 2.6-.4 1.6.5 2 2.6 2.2 4 .4 3.2.2 6.6-2.9 8.4-3.7 1.9-8.3 2.6-12.4 1.7-1-1.5-4.2-.3-5.9-1.4-10-1.7-19.8-2.1-29.7-.2-2.5 1.3-4.8.8-7.4.8-2-.2-2.9-1-3.6-2.9-1.6-2.7 2.9-3.6 4.6-4.7 3.5-.2 7.5-.3 11 .1 3.3 0 8.3-1.1 11.2.9 7.4 1.3 14.1 1.9 21.8 1.4 2.5-.3 5.1-.4 6.5-2.7 2.6-.9 1.6-2.9 2-5z" fill="#4ed389"/><path d="M231.3 507.4c2.3.6 5.2 2 6 4.4.6 1.6 1.8 1 2.7 2.2-.2 1.9 2.5 3.1 1.7 4.7-5.8 2.9-12.5 2-18.6 1.1-3.5-2.4-6.8-1.7-10.8-2.1-.7-.3-1-.7-1-1.2 1.4-.4 2.5-1.1 3.9-.8 6 .4 11.8.1 17.6-1.8 1.3-3-2.3-4.3-1.5-6.5z" fill="#4d9fd3"/><path d="M358.2 509.3c2.5-.9 1.8 3.2 1.7 4.5-1 .5-2 .5-2.8.1-1.1-1.3.4-3.4 1.1-4.6z" fill="#51d18c"/><path d="M379.2 516.4c3.8-1.2 8.6-.2 12.6-.3v.6c-2 .7-4.5.3-6.7.5-1.4-.3-2.8-.3-4.1-.1l-1.7-.3-.1-.4z" fill="#8bcdae"/><path d="M360 518.3c4-.2 8-.4 12-.1-3.4 1.1-8.5.9-12 .1z" fill="#61826c"/></svg>
